<?xml version="1.0" encoding="UTF-8"?><svg id="Layer_1" xmlns="http://www.w3.org/2000/svg" viewBox="0 0 281.91 142"><defs><style>.cls-1{fill:#231f20;stroke-width:0px;}</style></defs><path class="cls-1" d="M6.14,2.84c.16-.05.32-.16.47-.32.16-.16.42-.31.79-.47.47-.21,1-.32,1.58-.32.84,0,1.5.28,1.97.83.47.55.66,1.27.55,2.17-.05.21-.08.45-.08.71.21.05.42.16.63.31l4.41,2.28c.05.05.1.08.16.08s.1.03.16.08l.63.32c.05.05.1.08.16.08s.1.03.16.08l2.44,1.42c.26.11.54.13.83.08.29-.05.59-.08.91-.08.89,0,1.65.2,2.28.59.63.39,1.1.87,1.42,1.42.32.55.43,1.13.35,1.73-.08.6-.41,1.14-.98,1.61-.42.32-.81.51-1.18.59-.37.08-.84.12-1.42.12,0,.47-.03.93-.08,1.38-.05.45-.21.83-.47,1.14-.31.31-.55.53-.71.63-.16.11-.22.15-.2.12.03-.03-.01.04-.12.2l-1.34,2.05c-.11.11-.2.22-.28.35-.08.13-.17.28-.28.43-.53.68-1.18,1.55-1.97,2.6-.79,1.05-1.47,1.89-2.05,2.52l-.39.39-.16.24-.39.39c-.16.16-.24.29-.24.39,0,.42.04.66.12.71.08.05.43.34,1.06.87.16.16.26.29.32.39l4.49,4.33c.32.31.58.55.79.71.63.58,1.25,1.17,1.85,1.77.6.6,1.19,1.19,1.77,1.77.16.21.29.35.39.43.1.08.29.07.55-.04.47-.16.97-.24,1.5-.24.63,0,1.18.13,1.65.39.63.37,1.13.87,1.5,1.5.37.63.56,1.27.59,1.93.03.66-.11,1.29-.39,1.89-.29.6-.78,1.04-1.46,1.3-.11.05-.29.11-.55.16-.26.05-.5.08-.71.08v1.02c0,.84-.3,1.59-.91,2.24-.6.66-1.35.98-2.24.98-.37,0-.79-.08-1.26-.24-.37-.1-.59-.21-.67-.32-.08-.1-.17-.16-.28-.16-.16,0-.63.2-1.42.59s-1.63.85-2.52,1.38c-.89.53-1.73,1.01-2.52,1.46-.79.45-1.31.75-1.58.91l-3.15,1.89c-.16.11-.42.25-.79.43-.37.18-.63.3-.79.35,0,1.05-.26,1.93-.79,2.64-.53.71-1.34,1.06-2.44,1.06-.79,0-1.48-.24-2.09-.71-.6-.47-.91-1.13-.91-1.97v-.55l.08-.32c-1.16-.26-1.89-.83-2.21-1.69-.32-.87-.16-1.75.47-2.64.1-.16.28-.34.51-.55.24-.21.46-.34.67-.39l.63-9.37v-1.81l.08-.55v-4.65c0-.31.01-.55.04-.71.03-.16.04-.37.04-.63v-4.25c0-.52-.01-1-.04-1.42-.03-.42-.04-.87-.04-1.34v-8.9l-.08-.55v-.39c-.05-1.63-.05-3.27,0-4.92.05-1.65.08-3.27.08-4.84-.31-.05-.67-.17-1.06-.35-.39-.18-.72-.33-.98-.43-.42-.32-.7-.67-.83-1.06-.13-.39-.2-.8-.2-1.22,0-.79.35-1.52,1.06-2.21.71-.68,1.46-1.02,2.24-1.02.94,0,1.54.11,1.77.32.24.21.59.47,1.06.79ZM7.33,21.19c-.11-.42-.13-.88-.08-1.38.05-.5.05-.96,0-1.38-.05-.47-.08-1.08-.08-1.81v-6.62c0-.73-.03-1.29-.08-1.65-.05-.37-.05-.64,0-.83.05-.18.18-.37.39-.55.21-.18.58-.48,1.1-.91.79-.63,1.08-1.39.87-2.28-.68-.21-1.34.05-1.97.79-.16.21-.33.42-.51.63-.18.21-.49.32-.91.32-.37,0-.63-.12-.79-.35s-.29-.41-.39-.51c-.37-.52-.79-.79-1.26-.79-.42,0-.79.18-1.1.55-.31.37-.38.64-.2.83.18.18.43.33.75.43.32.11.66.22,1.02.35.37.13.6.35.71.67l.24,6.46c0,1.05.03,2.17.08,3.35.05,1.18.08,2.3.08,3.35,0,1.16.01,2.27.04,3.35.03,1.08.04,2.17.04,3.27l.16-.24c0,.05-.03.11-.08.16l.08-.16v-.16c.21-.58.48-1.01.83-1.3.34-.29.72-.56,1.14-.83l-.08-2.76ZM7.01,57.1c0-.58.32-1.01.95-1.3.63-.29,1.31-.64,2.05-1.06l3.47-1.89c.73-.42,1.46-.83,2.17-1.22s1.46-.8,2.24-1.22l.87-.47,1.81-.79c-.05-.16-.12-.34-.2-.55-.08-.21-.17-.39-.28-.55-.11-.16-.17-.37-.2-.63-.03-.26-.07-.47-.12-.63-.58.42-1.14.79-1.69,1.1-.55.32-1.12.66-1.69,1.02-.42.26-.95.58-1.58.95-.63.37-1.27.75-1.93,1.14-.66.39-1.27.76-1.85,1.1-.58.34-1.05.64-1.42.91-.16.11-.38.26-.67.47-.29.21-.62.43-.98.67-.37.24-.71.45-1.02.63-.31.18-.55.28-.71.28-.68,0-1.1-.12-1.26-.35s-.47-.35-.95-.35c-.31,0-.6.09-.87.28-.26.18-.39.41-.39.67,0,.32.21.46.63.43.42-.03.79.01,1.1.12.47.05.76.21.87.47.1.26.13.54.08.83-.05.29-.15.56-.28.83-.13.26-.2.47-.2.63,0,.47.29.71.87.71.21,0,.42-.05.63-.16.21-.1.37-.24.47-.39.1-.26.14-.51.12-.75-.03-.24-.04-.54-.04-.91ZM5.59,31.03c0-.52.07-.92.2-1.18.13-.26.33-.58.59-.95-.11-.21-.29-.42-.55-.63-.26-.21-.39-.55-.39-1.02h-.16v1.65l-.08,3.07v3.94l-.24,4.88v2.28c0,.26-.01.5-.04.71-.03.21-.04.5-.04.87,0,.47-.03,1.1-.08,1.89-.05.79-.11,1.42-.16,1.89v.79c-.11.42-.17.91-.2,1.46-.03.55-.04,1.04-.04,1.46.32.05.62.17.91.35.29.18.56.28.83.28s.39-.26.39-.79l.79-10.79v-.31l.08-.47v-.31l.08-6.3c-.47-.1-.91-.41-1.3-.91-.39-.5-.59-1.11-.59-1.85ZM9.29,31.9c.37,0,.71-.1,1.02-.32.32-.21.58-.42.79-.63.37-.52.63-1.18.79-1.97.1-.63.38-1.23.83-1.81.45-.58.85-1.1,1.22-1.58.16-.16.48-.55.98-1.18.5-.63,1.02-1.29,1.58-1.97.55-.68,1.04-1.31,1.46-1.89.42-.58.66-.92.71-1.02-.32-.1-.54-.24-.67-.39-.13-.16-.3-.29-.51-.39-.05.16-.29.49-.71.98-.42.5-.87,1.04-1.34,1.61-.47.58-.93,1.14-1.38,1.69-.45.55-.75.91-.91,1.06l-.39.39c-.47.58-.89.97-1.26,1.18-.37.21-.68.32-.95.32-.31,0-.62-.05-.91-.16-.29-.1-.57-.16-.83-.16-.31,0-.63.13-.95.39-.31.26-.47.55-.47.87,0,.26.13.41.39.43.26.03.52.07.79.12.26.05.48.13.67.24.18.11.28.32.28.63,0,.42-.09.68-.28.79-.18.11-.41.29-.67.55-.42.42-.66.89-.71,1.42-.05.53.42.79,1.42.79ZM8.66,51.12c.84-.58,1.76-1.15,2.76-1.73,1-.58,1.94-1.13,2.84-1.65l4.33-2.44,1.5-.71-8.03-8.74c-.21-.21-.53-.55-.95-1.02-.42-.47-.66-.81-.71-1.02-.16,0-.35.03-.59.08-.24.05-.41.11-.51.16v4.88l-.08.39v.31l-.08,3.15v.55l-.08,1.1v.87l-.08.39v.32c0,.74-.05,1.63-.16,2.68-.11,1.05-.16,1.86-.16,2.44ZM8.82,8.59c0,.21.12.35.35.43.24.08.56.22.98.43.26.11.5.22.71.35.21.13.45.25.71.35.26.16.5.3.71.43.21.13.45.25.71.35l2.91,1.5c.42.21.92.45,1.5.71.58.26.95.6,1.1,1.02.1.32.1.59,0,.83-.11.24-.16.54-.16.91,0,.42.08.83.24,1.22.16.39.47.59.95.59.37,0,.59-.09.67-.28.08-.18.12-.41.12-.67s-.03-.54-.08-.83c-.05-.29-.03-.56.08-.83.26-.68.6-1.01,1.02-.98.42.03.79.04,1.1.04,1.05,0,1.61-.22,1.69-.67.08-.45-.09-.8-.51-1.06-.21-.1-.37-.17-.47-.2-.11-.03-.29-.07-.55-.12-.42-.05-.76-.05-1.02,0-.26.05-.51.09-.75.12-.24.03-.5.01-.79-.04-.29-.05-.7-.21-1.22-.47l-.63-.39c-.74-.37-1.47-.76-2.21-1.18-.74-.42-1.42-.79-2.05-1.1-.16-.1-.28-.16-.35-.16s-.17-.05-.28-.16l-2.91-1.73c-.37.58-.72.92-1.06,1.02-.34.11-.51.29-.51.55ZM8.9,11.03c0,2.21.05,4.32.16,6.34.1,2.02.16,4.14.16,6.34.1,0,.17.01.2.04.03.03.07.04.12.04l.63.24c.05.05.1.08.16.08s.1.03.16.08l3.54-3.94c.1-.1.16-.18.16-.24s.05-.13.16-.24l1.18-1.18c.16-.21.33-.42.51-.63.18-.21.41-.42.67-.63-.11-.42-.16-.73-.16-.95s.01-.39.04-.55c.03-.16.05-.32.08-.47.03-.16.04-.34.04-.55-.16-.05-.6-.25-1.34-.59-.74-.34-1.52-.72-2.36-1.14-.84-.42-1.65-.83-2.44-1.22s-1.34-.67-1.65-.83ZM12.84,31.66c-.05.16-.18.34-.39.55-.11.11-.2.21-.28.31-.08.11-.15.21-.2.32.16.11.39.33.71.67.32.34.52.57.63.67l1.26,1.42c.16.16.28.29.35.39.08.11.17.24.28.39l.16.16.39.32.16.16c.1.16.2.29.28.39.08.11.2.21.35.31l4.65,4.88c.26.21.5.42.71.63.21.21.31.53.31.95s-.05.71-.16.87c-.11.16-.16.5-.16,1.02,0,.89.24,1.59.71,2.09.47.5.95.75,1.42.75.26,0,.48-.09.67-.28.18-.18.28-.48.28-.91,0-.52-.09-1.06-.28-1.61-.18-.55-.07-.98.35-1.3.21-.21.45-.31.71-.31s.51.04.75.12c.24.08.54.12.91.12.32,0,.52-.14.63-.43.1-.29.12-.6.04-.95-.08-.34-.22-.66-.43-.95-.21-.29-.53-.43-.95-.43s-.78.08-1.06.24c-.29.16-.64.24-1.06.24s-.78-.12-1.06-.35c-.29-.24-.56-.43-.83-.59-.11-.1-.35-.35-.75-.75l-1.3-1.3c-.47-.47-.92-.92-1.34-1.34-.42-.42-.71-.71-.87-.87l-4.96-4.96c-.11-.1-.2-.22-.28-.35-.08-.13-.2-.22-.35-.28Z"/><path class="cls-1" d="M49.86,5.51c0-.32-.05-.63-.16-.95-.05-.21-.08-.37-.08-.47s-.03-.29-.08-.55c0-.52.08-1.1.24-1.73.16-.42.43-.83.83-1.22s.88-.59,1.46-.59c.73,0,1.34.33,1.81.98.47.66.71,1.27.71,1.85.21,0,.35-.01.43-.04.08-.03.25-.04.51-.04.89,0,1.71.21,2.44.63.73.42,1.1,1.05,1.1,1.89v.39c0,.74-.37,1.35-1.1,1.85-.74.5-1.42.8-2.05.91,0,.11.06.3.2.59.13.29.25.54.35.75l3.78,9.06c.05.21.16.42.32.63l.47,1.34c.1.11.21.32.32.63l3.07,7.96c.79,0,1.43.15,1.93.43.5.29.84.66,1.02,1.1.18.45.22.93.12,1.46-.11.53-.34,1.02-.71,1.5-.37.42-.89.74-1.58.95-.37.11-.54.16-.51.16s-.01.18-.12.55l-1.02,2.91c-1,2.52-1.97,5.07-2.91,7.64-.95,2.57-1.92,5.09-2.91,7.56l-1.81,4.65c-.21.47-.34.75-.39.83-.05.08-.03.25.08.51.05.11.1.24.16.39.42,1.1.33,1.97-.28,2.6-.6.63-1.3.95-2.09.95-.47,0-.92-.12-1.34-.35-.42-.24-.76-.59-1.02-1.06-.42.21-.95.32-1.58.32-.58,0-1.16-.15-1.73-.43-.58-.29-1.02-.72-1.34-1.3-.26-.37-.39-.79-.39-1.26,0-.68.07-1.11.2-1.3.13-.18.35-.51.67-.98l-6.54-12.92-.95-1.65-1.26-2.36-.39-.79c-.37-.73-.71-1.39-1.02-1.97-.32-.58-.66-1.26-1.02-2.05-.11-.26-.18-.43-.24-.51-.05-.08-.12-.14-.2-.2-.08-.05-.17-.09-.28-.12-.11-.03-.26-.14-.47-.35-.21-.26-.37-.5-.47-.71-.95-1.58-.79-2.99.47-4.25.31-.31.66-.55,1.02-.71.37-.16.87-.24,1.5-.24l4.17-7.01c.16-.26.3-.51.43-.75.13-.24.25-.48.35-.75l1.18-2.13.08-.16.24-.39c0-.05.01-.08.04-.08.03,0,.04-.03.04-.08l4.73-8.66c.05-.1.16-.29.31-.55.16-.26.33-.55.51-.87.18-.31.35-.62.51-.91.16-.29.24-.46.24-.51ZM51.43,3.47c0,.63.03,1.09.08,1.38.05.29.08.54.08.75s-.05.45-.16.71c-.11.26-.34.68-.71,1.26l-11.26,20.4c-.37.68-.74,1.26-1.1,1.73-.37.47-.92.71-1.65.71-.47,0-.81.12-1.02.35-.21.24-.32.51-.32.83s.09.63.28.95c.18.32.46.55.83.71.32.11.66.11,1.02,0,.37-.1.71-.17,1.02-.2.31-.03.59.03.83.16.24.13.38.49.43,1.06.16,1.05.47,1.58.95,1.58s.71-.29.71-.87c0-.73-.26-1.42-.79-2.05-.32-.42-.54-.77-.67-1.06-.13-.29-.17-.56-.12-.83.05-.26.18-.58.39-.95.21-.37.5-.84.87-1.42.52-.89,1.1-1.94,1.73-3.15.63-1.21,1.23-2.28,1.81-3.23l4.02-7.25c.47-.89,1.05-1.99,1.73-3.31.68-1.31,1.29-2.36,1.81-3.15.16-.26.3-.52.43-.79.13-.26.3-.52.51-.79.26-.42.48-.6.67-.55.18.05.56.08,1.14.08.42,0,.89-.09,1.42-.28.52-.18.79-.46.79-.83,0-.16-.12-.29-.35-.39-.24-.1-.46-.16-.67-.16-.68,0-1.29.05-1.81.16-.53.11-.95,0-1.26-.32-.16-.16-.26-.39-.32-.71-.05-.31-.09-.63-.12-.95-.03-.31-.08-.58-.16-.79-.08-.21-.22-.31-.43-.31s-.37.18-.47.55c-.11.37-.16.68-.16.95ZM47.49,54.43c.32.63.54,1.08.67,1.34.13.26.24.42.32.47.08.05.18.05.31,0,.13-.05.41-.08.83-.08-.05-.16-.18-.34-.39-.55l-1.58-3.47c0-.05-.01-.08-.04-.08s-.04-.03-.04-.08l-.16-.24c0-.05-.03-.1-.08-.16l-2.21-4.65c-.16-.42-.33-.8-.51-1.14-.18-.34-.38-.72-.59-1.14l-3.15-6.93c-.63,0-1.14-.14-1.54-.43-.39-.29-.72-.7-.98-1.22l-.32-.79-.71.08,10.16,19.06ZM52.06,12.44c0,.11-.21.57-.63,1.38-.42.81-.88,1.72-1.38,2.72-.5,1-.98,1.93-1.46,2.8-.47.87-.76,1.41-.87,1.61l-2.05,3.7c-.42.79-.91,1.68-1.46,2.68-.55,1-1.04,1.86-1.46,2.6-.42.74-.64,1.16-.67,1.26-.03.11.07.29.28.55.37.58.67,1.22.91,1.93.24.71.22,1.41-.04,2.09-.21.68-.5,1.13-.87,1.34.16.32.51,1.01,1.06,2.09.55,1.08,1.13,2.23,1.73,3.47.6,1.23,1.17,2.39,1.69,3.47.52,1.08.87,1.83,1.02,2.24l2.13,4.49c0,.05.05.21.16.47.1.26.21.53.32.79.1.26.21.5.32.71.1.21.18.34.24.39.05-.21.12-.43.2-.67s.17-.43.28-.59l7.56-17.49c-.74-.42-1.08-1.05-1.02-1.89.05-.84.26-1.55.63-2.13.26-.42.5-.72.71-.91.21-.18.31-.33.31-.43l-7.64-18.67ZM53.4,59.39c0-.16.08-.41.24-.75.16-.34.29-.62.39-.83.05-.1.08-.17.08-.2,0-.03.03-.09.08-.2l.24-.71c.1-.21.16-.34.16-.39.52-1.26,1.17-2.9,1.93-4.92.76-2.02,1.55-4.1,2.36-6.22.81-2.13,1.61-4.15,2.4-6.06.79-1.92,1.44-3.37,1.97-4.37-.11-.1-.2-.16-.28-.16s-.17-.03-.28-.08c-.16.26-.32.5-.47.71-.16.21-.34.42-.55.63-.26.26-.47.43-.63.51-.16.08-.28.13-.35.16-.08.03-.13.07-.16.12-.03.05-.04.18-.04.39-.11.42-.29.98-.55,1.69-.26.71-.5,1.27-.71,1.69-.26.58-.5,1.12-.71,1.61-.21.5-.45,1.04-.71,1.61l-5.59,13.08c-.21.47-.39.83-.55,1.06s-.34.38-.55.43c-.21.05-.46.07-.75.04-.29-.03-.67-.04-1.14-.04s-.81.12-1.02.35c-.21.24-.3.49-.28.75.03.26.14.51.35.75.21.24.52.35.95.35.31,0,.64-.09.98-.28.34-.18.7-.28,1.06-.28.52,0,.92.26,1.18.79.1.21.22.42.35.63.13.21.33.32.59.32.1,0,.25-.01.43-.04.18-.03.28-.17.28-.43,0-.21-.12-.45-.35-.71-.24-.26-.35-.6-.35-1.02ZM54.11,8.59c-.16.11-.25.2-.28.28-.03.08-.07.2-.12.35-.16.42-.29.7-.39.83-.11.13-.11.3,0,.51l5.2,12.05c.1.21.33.76.67,1.65.34.89.7,1.84,1.06,2.84.37,1,.71,1.93,1.02,2.8.31.87.47,1.38.47,1.54,0,.32-.11.57-.32.75-.21.18-.43.39-.67.63-.24.24-.43.51-.59.83s-.18.71-.08,1.18c.42-.1.73-.39.95-.87.21-.47.45-.84.71-1.1.32-.32.63-.47.95-.47s.62.07.91.2c.29.13.56.2.83.2.58,0,.96-.16,1.14-.47.18-.32.22-.55.12-.71-.16-.26-.45-.35-.87-.28-.42.08-.79.07-1.1-.04-.53-.16-.89-.56-1.1-1.22-.21-.66-.39-1.22-.55-1.69-.37-1.05-.79-2.18-1.26-3.39-.47-1.21-.92-2.31-1.34-3.31l-2.68-6.62c-.05-.1-.08-.17-.08-.2s-.03-.09-.08-.2l-.31-.79c-.05-.1-.08-.17-.08-.2s-.03-.09-.08-.2l-1.42-3.31c-.11-.21-.24-.46-.39-.75-.16-.29-.24-.56-.24-.83Z"/><path class="cls-1" d="M71.67,5.51c0-.84.25-1.52.75-2.05.5-.52,1.09-.79,1.77-.79.47,0,.93.13,1.38.39.45.26.8.6,1.06,1.02.21-.1.34-.18.39-.24.05-.05.16-.13.32-.24.84-.58,1.73-.87,2.68-.87.58,0,1.11.15,1.61.43.5.29.88.72,1.14,1.3.42.84.46,1.69.12,2.56-.34.87-.88,1.56-1.61,2.09l3.07,6.62c.26.63.54,1.27.83,1.93.29.66.56,1.33.83,2.01l3.39,7.96c.26.68.54,1.34.83,1.97.29.63.56,1.29.83,1.97l4.73,11.34c.1.16.26.54.47,1.14.21.6.37.96.47,1.06v-1.97l.08-3.78v-11.26c0-1.63-.01-3.22-.04-4.77-.03-1.55-.04-3.11-.04-4.69s-.03-3.08-.08-4.69c-.05-1.6-.08-3.14-.08-4.61-.05-.05-.13-.08-.24-.08l-.55-.24c-.05,0-.09-.01-.12-.04-.03-.03-.07-.04-.12-.04-.11-.1-.25-.21-.43-.31-.18-.1-.33-.21-.43-.32-.11-.1-.2-.24-.28-.39-.08-.16-.17-.29-.28-.39-.42-1.05-.3-1.99.35-2.84.66-.84,1.43-1.26,2.32-1.26.79,0,1.33.07,1.61.2.29.13.72.41,1.3.83.21-.16.38-.3.51-.43.13-.13.35-.25.67-.35.42-.26.87-.42,1.34-.47.58-.1,1.08-.01,1.5.28.42.29.73.62.95.98.26.47.37.95.31,1.42-.05.47-.18.95-.39,1.42-.21.47-.47.89-.79,1.26-.32.37-.63.66-.95.87-.26.21-.46.35-.59.43-.13.08-.22.18-.28.32-.05.13-.07.34-.04.63.03.29.04.78.04,1.46,0,.32-.01.59-.04.83-.03.24-.04.54-.04.91l-.08,7.33c0,.37-.03.67-.08.91-.05.24-.08.51-.08.83,0,.63.01,1.68.04,3.15.03,1.47.04,2.99.04,4.57v4.41c0,1.37-.03,2.26-.08,2.68l-.08,7.33c0,.68-.01,1.31-.04,1.89-.03.58-.04,1.18-.04,1.81s-.03,1.22-.08,1.77c-.05.55-.08,1.12-.08,1.69.42.05.83.25,1.22.59.39.34.71.76.95,1.26.24.5.34,1.04.31,1.61-.03.58-.28,1.16-.75,1.73-.16.16-.41.33-.75.51-.34.18-.67.28-.98.28-.58,0-.97-.03-1.18-.08-.21-.05-.35-.08-.43-.08s-.13.07-.16.2c-.03.13-.17.35-.43.67-.32.42-.71.75-1.18.98-.47.24-.97.35-1.5.35-.84,0-1.6-.34-2.28-1.02-.47-.47-.76-1.08-.87-1.81-.11-.73.03-1.44.39-2.13.1-.21.24-.39.39-.55.05-.05.14-.13.28-.24.13-.1.2-.18.2-.24,0-.1-.17-.59-.51-1.46-.34-.87-.72-1.81-1.14-2.84-.42-1.02-.81-1.99-1.18-2.91-.37-.92-.6-1.51-.71-1.77l-6.38-15.36c-.11-.26-.39-.94-.87-2.05-.47-1.1-.98-2.27-1.54-3.51-.55-1.23-1.05-2.37-1.5-3.43-.45-1.05-.72-1.63-.83-1.73v3.86l.16,7.8v3.86c0,.42.01.78.04,1.06.03.29.04.64.04,1.06v17.72c.26,0,.56.09.91.28.34.18.66.42.95.71.29.29.51.62.67.98.16.37.16.79,0,1.26-.26.74-.75,1.26-1.46,1.58-.71.32-1.48.53-2.32.63-.53.11-1.04.04-1.54-.2-.5-.24-.96-.48-1.38-.75l-.32.24-.08.08h-.08c-.84.58-1.65.87-2.44.87-.63,0-1.18-.24-1.65-.71-.42-.47-.63-1.01-.63-1.61s.14-1.18.43-1.73c.29-.55.71-1.02,1.26-1.42.55-.39,1.17-.62,1.85-.67v-1.65l.08-3.31v-1.65l-.08-20.24v-1.1l-.08-2.21v-5.59c0-1.36-.03-2.82-.08-4.37-.05-1.55-.08-3.03-.08-4.45-.89-.21-1.52-.76-1.89-1.65-.37-.89-.55-1.73-.55-2.52ZM74.19,4.96c-.11,0-.18.11-.24.32-.05.21-.08.37-.08.47,0,.95.37,1.71,1.1,2.28.26.16.45.34.55.55.16.32.29.8.39,1.46.1.66.17,1.35.2,2.09.03.74.05,1.46.08,2.17.03.71.04,1.25.04,1.61l.08.47v3.54c0,.21.01.38.04.51.03.13.04.33.04.59v7.72c.05.21.08.81.08,1.81s.01,2.19.04,3.58c.03,1.39.04,2.9.04,4.53s-.01,3.16-.04,4.61c-.03,1.45-.04,2.71-.04,3.78v2.17c0,.37-.01.68-.04.95-.03.26-.04.53-.04.79,0,.68-.01,1.31-.04,1.89-.03.58-.04,1.16-.04,1.73,0,.47-.07.83-.2,1.06-.13.24-.29.39-.47.47-.18.08-.39.12-.63.12s-.46.03-.67.08c-.42.11-.78.34-1.06.71-.29.37-.38.79-.28,1.26h.51c.08,0,.22-.05.43-.16.42-.21.77-.46,1.06-.75.29-.29.59-.43.91-.43.73,0,1.22.17,1.46.51.24.34.7.51,1.38.51.32,0,.66-.03,1.02-.08.37-.05.66-.21.87-.47-.21-.31-.56-.52-1.06-.63-.5-.1-.88-.29-1.14-.55-.32-.32-.47-.72-.47-1.22v-1.61c0-1.1.01-2.19.04-3.27.03-1.08.04-2.19.04-3.35v-11.42c0-.89-.01-1.72-.04-2.48-.03-.76-.04-1.56-.04-2.4,0-1.68-.01-3.32-.04-4.92-.03-1.6-.04-3.22-.04-4.84l-.08-9.85c0-.89.14-1.56.43-2.01.29-.45.72-.85,1.3-1.22.58-.37.96-.71,1.14-1.02.18-.32.26-.59.24-.83-.03-.24-.12-.42-.28-.55-.16-.13-.32-.2-.47-.2-.47,0-.87.09-1.18.28-.31.18-.59.39-.83.63-.24.24-.47.46-.71.67-.24.21-.51.31-.83.31s-.58-.1-.79-.31c-.21-.21-.39-.43-.55-.67-.16-.24-.32-.46-.47-.67-.16-.21-.37-.32-.63-.32ZM80.02,10.55c0,.68-.01,1.31-.04,1.89-.03.58-.04,1.18-.04,1.81,0,.58.01.89.04.95.03.05.14.24.35.55.16.31.41.83.75,1.54.34.71.7,1.47,1.06,2.28.37.81.72,1.6,1.06,2.36.34.76.59,1.33.75,1.69l11.81,28.28c.26.58.5,1.18.71,1.81.21.63.18,1.18-.08,1.65-.21.37-.42.6-.63.71-.21.11-.32.53-.32,1.26,0,.21.09.41.28.59.18.18.41.28.67.28.21,0,.42-.08.63-.24.21-.16.45-.47.71-.95.26-.52.48-.84.67-.95.18-.1.51-.16.98-.16.1,0,.34.07.71.2.37.13.71.2,1.02.2.37,0,.55-.16.55-.47,0-.47-.09-.81-.28-1.02-.18-.21-.41-.35-.67-.43-.26-.08-.56-.13-.91-.16-.34-.03-.67-.07-.98-.12-.63-.1-1.05-.37-1.26-.79-.21-.42-.42-.92-.63-1.5-.79-2.41-1.69-4.94-2.72-7.56-1.02-2.63-2.04-5.12-3.03-7.48l-10.87-25.6c0-.05-.01-.08-.04-.08s-.04-.03-.04-.08l-.16-.32c0-.05-.03-.1-.08-.16ZM99.71,34.03c.05-1.21.07-2.53.04-3.98-.03-1.44-.04-2.82-.04-4.13v-.71l.08-1.18v-3.39c0-.52.01-.97.04-1.34.03-.37.04-.79.04-1.26l.08-8.03c0-.42.08-.75.24-.98.16-.24.35-.45.59-.63.24-.18.5-.37.79-.55.29-.18.54-.43.75-.75.26-.31.46-.7.59-1.14.13-.45.07-.67-.2-.67-.53,0-.98.24-1.38.71-.39.47-.83.76-1.3.87-.31.11-.58.09-.79-.04-.21-.13-.42-.29-.63-.47-.21-.18-.42-.37-.63-.55-.21-.18-.45-.28-.71-.28-.21,0-.45.04-.71.12-.26.08-.39.3-.39.67s.13.6.39.71c.26.11.54.22.83.35.29.13.56.38.83.75.26.37.39,1,.39,1.89l-.08,28.59c-.05.21-.08.56-.08,1.06v1.69c0,.63-.01,1.23-.04,1.81-.03.58-.07,1.05-.12,1.42v1.58l-.16,2.91c0,.26.03.47.08.63.05.16.13.34.24.55.26.74.43,1.22.51,1.46.08.24.33.35.75.35v-.47l-.08-.95v-5.99l.08-10.63Z"/><path class="cls-1" d="M132.09,5.67c.1-.26.18-.48.24-.67.05-.18.16-.41.31-.67.73-1.21,1.84-1.81,3.31-1.81.94,0,1.76.34,2.44,1.02.52.58.83,1.17.91,1.77.08.6.05,1.17-.08,1.69-.13.53-.32.98-.55,1.38-.24.39-.38.72-.43.98.26.11.48.28.67.51.18.24.33.49.43.75.37.68.52,1.38.47,2.09-.05.71-.37,1.35-.95,1.93l-.39.39c-.11.11-.26.21-.47.31-.42.21-.97.32-1.65.32-1.21,0-2.14-.41-2.8-1.22-.66-.81-.98-1.8-.98-2.95-.26,0-.67.01-1.22.04-.55.03-1.14.07-1.77.12-.63.05-1.23.11-1.81.16-.58.05-1.05.11-1.42.16l-8.03.87c-.11,0-.18.01-.24.04-.05.03-.13.04-.24.04l-.95.16c-.11,0-.18.01-.24.04-.05.03-.13.04-.24.04l.16,5.51v.31l.08.47v1.46c0,.34.03.7.08,1.06.1.68.13,1.42.08,2.21-.05.79-.03,1.55.08,2.28.05.37.07.72.04,1.06-.03.34-.01.72.04,1.14v.32l.08.47v1.42c.42-.1.85-.18,1.3-.24.45-.05.88-.1,1.3-.16.52-.1,1.15-.18,1.89-.24.73-.05,1.48-.1,2.24-.16.76-.05,1.51-.08,2.24-.08h1.89l.24-.71c.31-.73.85-1.36,1.61-1.89.76-.52,1.56-.79,2.4-.79s1.52.26,2.05.79c.26.32.46.58.59.79.13.21.25.58.35,1.1.1.47.08.92-.08,1.34-.16.42-.34.79-.55,1.1-.21.32-.43.59-.67.83s-.41.43-.51.59c.26.42.55.92.87,1.5.32.58.47,1.23.47,1.97,0,1.05-.33,1.85-.98,2.4-.66.55-1.41.83-2.24.83-.89,0-1.68-.31-2.36-.94-.68-.63-1.08-1.39-1.18-2.28-.26,0-.51-.01-.75-.04-.24-.03-.49-.01-.75.04l-9.22.95v9.61l-.08,2.6v1.42c.32,0,.56-.01.75-.04.18-.03.46-.04.83-.04h2.36c.42,0,.76.01,1.02.04.26.03.55.04.87.04h.95l1.73.08h1.89l1.81.16h.95c.26,0,.43.01.51.04.08.03.2.04.35.04h.95c.89.11,1.4.15,1.54.12.13-.03.33-.2.59-.51l.55-.63c.73-.73,1.65-1.1,2.76-1.1,1,0,1.84.32,2.52.95.58.47.91,1.1.98,1.89s-.09,1.47-.51,2.05c-.16.26-.34.46-.55.59-.21.13-.37.25-.47.35.05.16.13.34.24.55.1.21.21.42.32.63.37.89.34,1.79-.08,2.68-.42.89-1.18,1.34-2.28,1.34-.84,0-1.56-.16-2.17-.47-.6-.31-1.19-.71-1.77-1.18-.32-.26-.53-.5-.63-.71-.11-.21-.37-.34-.79-.39l-2.52-.16c-1.68-.05-3.34-.13-4.96-.24-1.63-.1-3.28-.16-4.96-.16-.11.42-.47.8-1.1,1.14-.63.34-1.34.51-2.13.51-.58,0-1.16-.16-1.73-.47-.26-.1-.47-.25-.63-.43-.16-.18-.34-.3-.55-.35-.21.16-.39.31-.55.47-.16.16-.37.32-.63.47-.63.26-1.18.39-1.65.39-.95,0-1.71-.37-2.28-1.1l-.24-.39c-.11-.26-.17-.55-.2-.87-.03-.31-.04-.6-.04-.87,0-.84.34-1.75,1.02-2.72.68-.97,1.44-1.54,2.28-1.69v-1.58l-.08-2.99v-6.54c0-.26.01-.47.04-.63.03-.16.04-.37.04-.63v-3.54l.08-1.26v-.71c0-1.84.03-3.65.08-5.43.05-1.78.08-3.6.08-5.43v-1.93c0-.66-.03-1.33-.08-2.01l-.16-1.42v-.79c-.05-.05-.13-.08-.24-.08l-.55-.24c-.53-.21-.96-.54-1.3-.98-.34-.45-.51-.96-.51-1.54,0-.84.1-1.38.32-1.61.21-.24.5-.62.87-1.14-.79-.52-1.23-1.15-1.34-1.89-.11-.73.03-1.4.39-2.01.37-.6.92-1.09,1.65-1.46.73-.37,1.52-.47,2.36-.31.58.11,1.01.31,1.3.63.29.32.56.68.83,1.1.21-.1.58-.2,1.1-.28.52-.08,1.09-.14,1.69-.2.6-.05,1.21-.1,1.81-.16.6-.05,1.06-.1,1.38-.16l5.28-.39,5.59.08ZM114.6,17.09v-.63l.08-1.1v-.63c-.26.16-.43.32-.51.47-.08.16-.41.39-.98.71.05.11.1.55.16,1.34.05.79.09,1.65.12,2.6.03.95.05,1.86.08,2.76.03.89.04,1.5.04,1.81,0,.47-.01,1.34-.04,2.6-.03,1.26-.05,2.72-.08,4.37-.03,1.65-.05,3.39-.08,5.2-.03,1.81-.04,3.54-.04,5.2v4.33c0,1.23.03,2.09.08,2.56,0,.21.01.47.04.79.03.31.04.64.04.98s-.01.66-.04.95c-.03.29-.07.51-.12.67-.16.37-.47.66-.95.87-.63.31-1.13.7-1.5,1.14-.37.45-.6.87-.71,1.26-.11.39-.09.74.04,1.02.13.29.35.43.67.43.21,0,.52-.13.95-.39.26-.26.45-.47.55-.63.21-.26.41-.5.59-.71.18-.21.46-.32.83-.32s.68.13.95.39c.21.21.35.41.43.59.08.18.18.34.32.47.13.13.3.24.51.32.21.08.58.12,1.1.12.21,0,.43-.08.67-.24.24-.16.39-.37.47-.63.08-.26.05-.54-.08-.83-.13-.29-.46-.59-.98-.91-.32-.16-.62-.26-.91-.32-.29-.05-.53-.14-.71-.28-.18-.13-.34-.34-.47-.63-.13-.29-.2-.77-.2-1.46,0-.26.01-.46.04-.59.03-.13.04-.33.04-.59v-8.59c0-4.15-.07-8.22-.2-12.21-.13-3.99-.2-8.09-.2-12.29ZM137.84,12.05c0-.16-.05-.33-.16-.51-.11-.18-.21-.33-.32-.43-.21-.16-.43-.3-.67-.43-.24-.13-.43-.3-.59-.51-.16-.21-.22-.47-.2-.79.03-.31.22-.79.59-1.42.52-.84.79-1.51.79-2.01s-.12-.87-.35-1.1-.53-.35-.87-.35-.64.08-.91.24c-.11.11-.21.21-.31.32-.11.11-.21.24-.32.39-.11.21-.17.37-.2.47-.03.11-.07.26-.12.47-.21.74-.58,1.14-1.1,1.22-.53.08-1.08.07-1.65-.04-.26-.05-.78-.07-1.54-.04-.76.03-1.56.05-2.4.08-.84.03-1.64.07-2.4.12-.76.05-1.3.08-1.61.08l-5.36.63c-.42.11-1.02.22-1.81.35-.79.13-1.34.2-1.65.2-.47,0-.75-.12-.83-.35-.08-.24-.17-.48-.28-.75-.16-.52-.55-.79-1.18-.79-.37,0-.72.11-1.06.32-.34.21-.51.47-.51.79,0,.42.17.72.51.91.34.18.67.35.98.51.32.16.55.39.71.71.16.42.08.75-.24.98-.32.24-.58.43-.79.59-.42.32-.68.64-.79.98-.11.34-.09.63.04.87.13.24.35.35.67.35s.68-.21,1.1-.63.67-.8.75-1.14c.08-.34.25-.62.51-.83.37-.31,1.01-.52,1.93-.63.92-.1,1.61-.18,2.09-.24l2.91-.32c.94-.1,2.01-.18,3.19-.24,1.18-.05,2.11-.13,2.8-.24l6.14-.32c.58,0,.92.3,1.02.91.1.6.18,1.01.24,1.22.16.68.41,1.17.75,1.46.34.29.7.43,1.06.43.42,0,.76-.13,1.02-.39s.39-.63.39-1.1ZM130.75,32.92c0-.42.14-.73.43-.95.29-.21.56-.42.83-.63.42-.32.72-.66.91-1.02.18-.37.24-.68.16-.95-.08-.26-.26-.45-.55-.55-.29-.1-.67-.05-1.14.16l-.55.31c-.47.37-.74.75-.79,1.14-.05.39-.12.74-.2,1.02-.08.29-.28.5-.59.63-.32.13-.95.15-1.89.04l-10.24.71v2.44c.32,0,.66-.04,1.02-.12.37-.08.71-.14,1.02-.2.16,0,.31-.01.47-.04.16-.03.34-.04.55-.04l2.21-.24c.21,0,.39-.01.55-.04.16-.03.31-.04.47-.04.58,0,1.29-.05,2.13-.16.84-.1,1.58-.13,2.21-.08,1.1.11,1.73.38,1.89.83.16.45.31.93.47,1.46.1.42.29.72.55.91.26.18.52.28.79.28.68,0,1.02-.37,1.02-1.1,0-.47-.09-.85-.28-1.14-.18-.29-.38-.56-.59-.83-.21-.26-.41-.52-.59-.79-.18-.26-.28-.6-.28-1.02ZM136.58,54.66c0-.32.13-.56.39-.75.26-.18.52-.3.79-.35.58-.1.95-.28,1.1-.51.16-.24.2-.47.12-.71-.08-.24-.26-.45-.55-.63-.29-.18-.62-.28-.98-.28-.68,0-1.23.34-1.65,1.02-.53.84-1.06,1.23-1.61,1.18-.55-.05-1.35-.08-2.4-.08l-5.04-.24h-.63l-1.18-.08h-.63l-2.52-.16c-.42-.05-.83-.08-1.22-.08h-1.3c.21.26.38.47.51.63.13.16.25.42.35.79.16.37.24.59.24.67s.21.09.63.04l11.11.39c.52.05.91.11,1.14.16.24.05.42.12.55.2.13.08.25.2.35.35.1.16.29.37.55.63.47.47.96.83,1.46,1.06.5.24.93.35,1.3.35.42,0,.63-.16.63-.47,0-.37-.08-.68-.24-.95-.16-.26-.33-.5-.51-.71-.18-.21-.35-.43-.51-.67s-.24-.51-.24-.83Z"/><path class="cls-1" d="M149.23,6.73c.05-.16.13-.34.24-.56.11-.21.21-.4.32-.56.42-.64.9-1.1,1.43-1.39.53-.29,1.04-.44,1.51-.44.74,0,1.39.27,1.95.8.56.53.84,1.19.84,1.99,0,1.17-.09,1.9-.28,2.19-.19.29-.28.6-.28.92l9.55,15.85c.11-.32.27-.64.48-.96.11-.21.19-.38.24-.52.05-.13.13-.28.24-.44l4.78-9.32c.16-.32.3-.65.44-1,.13-.34.3-.65.52-.92.11-.21.28-.53.52-.96.24-.42.36-.72.36-.88-.37-.11-.72-.52-1.03-1.23-.32-.72-.4-1.47-.24-2.27s.52-1.43,1.07-1.91,1.13-.72,1.71-.72c.74,0,1.3.29,1.67.88.05.05.08.11.08.16l.16.24c0,.05.01.08.04.08s.04.03.04.08c.96-.64,1.86-.96,2.71-.96.74,0,1.37.19,1.87.56.5.37.86.84,1.08,1.39.21.56.25,1.11.12,1.67-.13.56-.52,1.05-1.15,1.47-.37.21-.68.36-.92.44-.24.08-.45.12-.64.12s-.36.03-.52.08c-.16.05-.32.21-.48.48l-1.91,4.06c-.27.58-.53,1.13-.8,1.63-.27.51-.53,1.05-.8,1.63-.58,1.11-1.21,2.3-1.87,3.54-.66,1.25-1.29,2.46-1.87,3.62,0,.05-.01.08-.04.08s-.04.03-.04.08l-.24.4c0,.05-.03.11-.08.16l-1.67,3.19c0,.05-.01.09-.04.12-.03.03-.04.07-.04.12l-.24.32c-.05.05-.08.09-.08.12,0,.03-.03.07-.08.12-.05.11-.11.23-.16.36-.05.13-.11.28-.16.44l-1.67,3.11c-.11.16-.19.29-.24.4-.05.11-.13.27-.24.48-.53,1.06-1.09,2.11-1.67,3.15-.58,1.03-1.11,2.08-1.59,3.15l-.88,1.59c-.11.11-.19.21-.24.32-.05.11-.11.24-.16.4l-1.67,3.19c-.05.05-.13.19-.24.4l-.4.72c-.05.11-.09.17-.12.2-.03.03-.07.09-.12.2-.11.16-.29.48-.56.96-.27.48-.53.97-.8,1.47-.27.5-.52.98-.76,1.43-.24.45-.36.73-.36.84.37.21.68.41.92.6.24.19.46.44.68.76.32.43.53.93.64,1.51.11.58.03,1.17-.24,1.75-.32.69-.74,1.15-1.27,1.39-.53.24-1.17.36-1.91.36-.69,0-1.35-.25-1.99-.76-.64-.5-1.03-1.05-1.19-1.63-.32.11-.61.2-.88.28-.27.08-.61.12-1.03.12-.96,0-1.7-.25-2.23-.76-.53-.5-.82-1.1-.88-1.79-.05-.69.16-1.38.64-2.07.48-.69,1.22-1.19,2.23-1.51.32-.11.6-.16.84-.16h1l9.16-17.36c.37-.74.65-1.29.84-1.63.19-.34.29-.6.32-.76.03-.16,0-.28-.08-.36s-.2-.28-.36-.6l-7.01-11.15c-.16-.27-.31-.52-.44-.76-.13-.24-.28-.49-.44-.76l-1.99-2.95c-.37-.53-.62-.81-.76-.84-.13-.03-.36-.04-.68-.04-1.49-.05-2.71-.45-3.66-1.19-.8-.53-1.35-1.23-1.67-2.11-.32-.88-.19-1.76.4-2.67.58-.9,1.49-1.43,2.71-1.59.37-.05.69-.03.96.08.27.11.53.19.8.24ZM152.74,9.51c0-.42.13-.85.4-1.27.27-.42.4-.9.4-1.43,0-.32-.08-.58-.24-.8-.16-.21-.43-.24-.8-.08-.48.21-.8.52-.96.92s-.29.8-.4,1.19c-.11.4-.24.74-.4,1.03-.16.29-.48.44-.96.44s-.81-.16-1-.48c-.19-.32-.52-.48-1-.48s-.84.13-1.08.4c-.24.27-.32.57-.24.92.08.35.3.69.68,1.04.37.35.96.62,1.75.84.53.11,1.09.16,1.67.16s1.14.32,1.67.96c.64.8,1.35,1.83,2.15,3.11s1.62,2.63,2.47,4.06c.85,1.43,1.7,2.85,2.55,4.26.85,1.41,1.62,2.64,2.31,3.7l.88,1.27,1.04-1.91c-1.01-1.49-1.95-2.93-2.83-4.34-.88-1.41-1.79-2.88-2.75-4.42l-3.42-5.57c-.27-.48-.65-1.04-1.15-1.67-.5-.64-.76-1.25-.76-1.83ZM154.01,53.23c0-.16.15-.57.44-1.23.29-.66.64-1.37,1.03-2.11.4-.74.78-1.47,1.15-2.19.37-.72.64-1.21.8-1.47l.24-.24c0-.05.01-.09.04-.12.03-.03.04-.07.04-.12l1.51-2.87c.16-.37.33-.76.52-1.15.19-.4.38-.76.6-1.07.05-.05.08-.13.08-.24l.24-.24c0-.05.01-.09.04-.12.03-.03.04-.07.04-.12.11-.27.23-.5.36-.72.13-.21.25-.45.36-.72.05-.11.09-.17.12-.2.03-.03.07-.09.12-.2l.32-.72c.05-.05.09-.11.12-.16.03-.05.07-.11.12-.16l2.23-4.38c.11-.16.19-.29.24-.4.05-.11.11-.21.16-.32l1.91-3.66c.32-.53.58-1.01.8-1.43.11-.11.17-.22.2-.36.03-.13.09-.25.2-.36l.72-1.35c.37-.58.7-1.19,1-1.83.29-.64.6-1.25.92-1.83l2.71-5.1c.21-.37.41-.72.6-1.03.19-.32.36-.69.52-1.11.11-.27.22-.5.36-.72.13-.21.25-.48.36-.8.11-.21.16-.34.16-.4l.4-.72c.05-.11.08-.17.08-.2s.03-.09.08-.2c.37-.9.64-1.46.8-1.67.16-.21.64-.37,1.43-.48.8-.11,1.25-.32,1.35-.64.11-.32.03-.6-.24-.84-.27-.24-.66-.37-1.19-.4-.53-.03-1.06.2-1.59.68l-.8.8c-.32.32-.69.35-1.11.08-.27-.16-.4-.37-.4-.64-.05-.27-.11-.57-.16-.92-.05-.34-.21-.52-.48-.52-.11,0-.21.07-.32.2-.11.13-.19.25-.24.36-.16.21-.24.53-.24.96,0,.37.07.64.2.8.13.16.28.32.44.48.16.16.3.33.44.52.13.19.2.49.2.92,0,.05-.07.21-.2.48-.13.27-.29.56-.48.88-.19.32-.36.62-.52.92-.16.29-.29.49-.4.6-.27.48-.5.94-.72,1.39-.21.45-.45.94-.72,1.47l-4.38,8.76c-.27.53-.52,1.02-.76,1.47-.24.45-.49.92-.76,1.39l-5.89,11.63c-.16.32-.39.74-.68,1.27-.29.53-.57,1.09-.84,1.67-.27.58-.53,1.13-.8,1.63-.27.51-.48.89-.64,1.15-.21.32-.44.74-.68,1.27-.24.53-.5,1.08-.8,1.63-.29.56-.57,1.1-.84,1.63-.27.53-.5.96-.72,1.27-.27.48-.53.93-.8,1.35-.27.43-.77.66-1.51.72-.43,0-.76.03-1,.08-.24.05-.49.16-.76.32-.21.16-.4.35-.56.56-.16.21-.24.48-.24.8,0,.43.34.64,1.03.64.64,0,1.19-.16,1.67-.48.16-.11.37-.24.64-.4.27-.16.53-.24.8-.24.32,0,.58.21.8.64.11.27.13.47.08.6-.05.13-.08.33-.08.6,0,.32.19.6.56.84.37.24.77.36,1.19.36.27,0,.49-.07.68-.2.19-.13.28-.36.28-.68,0-.48-.11-.82-.32-1.04-.21-.21-.44-.42-.68-.64-.24-.21-.47-.42-.68-.64-.21-.21-.32-.56-.32-1.03Z"/><path class="cls-1" d="M191.09,10.08c0-.1-.11-.25-.31-.43-.21-.18-.34-.33-.39-.43-.21-.21-.42-.52-.63-.95-.32-.73-.42-1.43-.32-2.09.1-.66.34-1.25.71-1.77.37-.52.81-.93,1.34-1.22.52-.29,1.08-.43,1.65-.43,1.05,0,1.89.5,2.52,1.5.16-.1.28-.2.36-.28.08-.08.17-.17.28-.28.68-.52,1.36-.79,2.05-.79.79,0,1.43.26,1.93.79.5.53.75,1.16.75,1.89s-.09,1.34-.28,1.81c-.18.47-.49,1-.91,1.58-.16.21-.28.41-.36.59-.08.18-.22.38-.43.59-.21.21-.37.37-.47.47-.11.11-.26.29-.47.55.21.42.37.85.47,1.3.1.45.21.88.32,1.3l4.1,19.06c.26,0,.42-.01.47-.04.05-.03.18-.04.39-.04h.94c.21,0,.33-.03.35-.08.03-.05.09-.13.2-.24.31-.58.71-.98,1.18-1.22.47-.24.97-.35,1.5-.35.79,0,1.42.24,1.89.71.21.16.41.35.59.59.18.24.28.54.28.91,0,.58-.07,1.08-.2,1.5-.13.42-.49.81-1.06,1.18.11.21.25.46.43.75.18.29.28.59.28.91,0,.42-.03.8-.08,1.14-.05.34-.29.64-.71.91-.53.31-1.13.47-1.81.47-.58,0-1.18-.13-1.81-.39-.26-.1-.5-.21-.71-.32-.21-.1-.45-.18-.71-.24.05.21.1.43.16.67.05.24.1.43.16.59.05.21.09.41.12.59.03.18.07.41.12.67.11.42.2.81.28,1.18.08.37.17.76.28,1.18l1.65,8.74c.05.21.14.35.28.43.13.08.3.16.51.24.21.08.46.18.75.31.29.13.62.41.98.83.47.47.75,1.01.83,1.61.08.6.01,1.17-.2,1.69-.21.53-.55.97-1.02,1.34-.47.37-1.02.55-1.65.55-1,0-1.64-.16-1.93-.47-.29-.31-.64-.6-1.06-.87-.47.26-.96.5-1.46.71-.5.21-1.01.31-1.54.31-.89,0-1.65-.34-2.28-1.02-.26-.32-.45-.63-.55-.95-.42-1-.34-1.97.24-2.91s1.31-1.52,2.21-1.73c0-.26-.04-.55-.12-.87-.08-.32-.14-.6-.2-.87,0-.1-.01-.17-.04-.2-.03-.03-.04-.09-.04-.2l-.16-.79c0-.1-.01-.17-.04-.2-.03-.03-.04-.09-.04-.2l-2.13-8.98c0-.1-.03-.22-.08-.35-.05-.13-.08-.28-.08-.43l-7.33.47c-.26,0-.68.01-1.26.04-.58.03-.92.09-1.02.2l-2.68,7.72c-.05.21-.17.57-.35,1.06-.18.5-.37,1.01-.55,1.54-.18.53-.35,1.01-.51,1.46-.16.45-.26.78-.32.98.1.16.29.37.55.63.42.58.7,1.02.83,1.34.13.32.2.81.2,1.5s-.29,1.22-.87,1.61c-.58.39-1.23.59-1.97.59-1.16,0-2.05-.45-2.68-1.34-.42.26-.87.54-1.34.83-.47.29-1.08.43-1.81.43-.68,0-1.34-.24-1.97-.71-.63-.47-.95-1.02-.95-1.65v-.55c0-.73.39-1.39,1.18-1.97.79-.58,1.55-.97,2.28-1.18.26-.1.42-.17.47-.2.05-.03.13-.17.24-.43l2.84-9.14.32-.95c-.21.05-.37.09-.47.12-.11.03-.29.04-.55.04-1.16,0-2-.43-2.52-1.3-.53-.87-.58-1.74-.16-2.64.1-.21.2-.35.28-.43s.17-.2.28-.35c-.11-.16-.2-.29-.28-.39-.08-.1-.17-.26-.28-.47-.16-.52-.21-1.06-.16-1.61.05-.55.29-1.01.71-1.38.58-.52,1.23-.79,1.97-.79.84,0,1.6.2,2.28.59.68.39,1.15.62,1.42.67l5.36-17.88c.05-.21.17-.6.36-1.18.18-.58.37-1.18.55-1.81.18-.63.34-1.23.47-1.81.13-.58.2-.97.2-1.18ZM182.27,53.32c0-.42.05-.75.16-.98.1-.24.21-.48.31-.75.05-.1.08-.17.08-.2s.03-.09.08-.2l.24-.79c.1-.21.16-.34.16-.39l2.84-7.96c.1-.21.21-.48.32-.83.1-.34.16-.62.16-.83-.47,0-.89.01-1.26.04-.37.03-.76.04-1.18.04-.11.42-.22.81-.35,1.18-.13.37-.25.74-.35,1.1l-.47,1.65-1.18,3.39-.47,1.65c-.05.21-.15.54-.28.98-.13.45-.26.89-.39,1.34-.13.45-.28.85-.43,1.22-.16.37-.29.63-.39.79-.26.26-.58.43-.95.51-.37.08-.74.2-1.1.35-1,.42-1.48.87-1.46,1.34.03.47.33.71.91.71.84,0,1.5-.26,1.97-.79.47-.52.95-.79,1.42-.79.37,0,.79.32,1.26.95.26.32.59.55.98.71s.72.11.98-.16c.21-.21.25-.45.12-.71-.13-.26-.33-.54-.59-.83-.26-.29-.51-.58-.75-.87-.24-.29-.35-.59-.35-.91ZM179.75,35.13c0,.32.12.58.35.79.24.21.47.42.71.63.24.21.41.43.51.67.1.24.03.54-.24.91-.16.16-.32.26-.47.31-.84.32-1.17.62-.98.91.18.29.41.46.67.51.47.11.91-.04,1.3-.43s.83-.7,1.3-.91c.42-.1.81-.14,1.18-.12.37.03.79.01,1.26-.04.26-.05.68-.08,1.26-.08l6.3-.39c.42-.05.84-.07,1.26-.04.42.03.84-.01,1.26-.12l2.44-.24-.47-2.21c-.26.11-.76.18-1.5.24-.74.05-1.29.11-1.65.16l-6.69.47c-.95,0-1.64.04-2.09.12-.45.08-.8.12-1.06.12-.32,0-.62-.08-.91-.24-.29-.16-.8-.45-1.54-.87-.53-.37-1.08-.55-1.65-.55-.37,0-.55.13-.55.39ZM194.56,15.52c.21-.63.41-1.26.59-1.89.18-.63.35-1.23.51-1.81.16-.63.36-1.1.59-1.42.24-.32.48-.59.75-.83.26-.24.54-.5.83-.79.29-.29.56-.7.83-1.22.16-.26.3-.55.43-.87.13-.31.2-.63.2-.95,0-.58-.29-.92-.87-1.02-.21,0-.41.08-.59.24-.18.16-.35.29-.51.39-.26.26-.46.51-.59.75-.13.24-.25.43-.35.59-.11.16-.24.28-.39.35-.16.08-.39.12-.71.12s-.54-.13-.67-.39c-.13-.26-.24-.54-.32-.83-.08-.29-.17-.56-.28-.83-.11-.26-.32-.39-.63-.39-.58,0-1.02.18-1.34.55-.32.37-.47.76-.47,1.18,0,.47.09.85.28,1.14.18.29.37.54.55.75.18.21.37.42.55.63.18.21.28.47.28.79,0,.42-.07.92-.2,1.5-.13.58-.28,1.18-.43,1.81-.16.63-.33,1.23-.51,1.81-.18.58-.33,1.08-.43,1.5l-5.04,16.3c-.05.11-.08.18-.08.24s-.03.13-.08.24l-.16.47c0,.11-.05.26-.16.47h.71l1.18-.08h.71l5.83-18.51ZM190.78,33.87h.31l.63-.08c.68-.05,1.36-.09,2.05-.12.68-.03,1.36-.04,2.05-.04.73,0,1.12-.03,1.14-.08.03-.05-.04-.39-.2-1.02-.11-.37-.17-.72-.2-1.06-.03-.34-.09-.72-.2-1.14-.16-.73-.3-1.47-.43-2.21-.13-.73-.25-1.47-.35-2.21-.11-.37-.18-.72-.24-1.06-.05-.34-.11-.7-.16-1.06-.11-.37-.2-.76-.28-1.18-.08-.42-.12-.79-.12-1.1h-.16c0,.11-.09.45-.28,1.02-.18.58-.39,1.21-.63,1.89-.24.68-.46,1.34-.67,1.97-.21.63-.34,1.05-.39,1.26-.05.16-.17.55-.35,1.18-.18.63-.39,1.3-.63,2.01-.24.71-.45,1.37-.63,1.97-.18.6-.28.96-.28,1.06ZM195.66,18.35l.16.24.16.32c0,.11.01.2.04.28.03.08.04.17.04.28.05.42.16.84.31,1.26l.94,5.04c.11.42.18.85.24,1.3.05.45.13.85.24,1.22.42,2.68.91,5.2,1.46,7.56.55,2.36,1.09,4.8,1.61,7.33l1.73,7.25c.11.42.21.84.32,1.26.1.42.18.84.24,1.26.1.58.01.96-.28,1.14-.29.18-.62.33-.98.43-.42.16-.75.38-.98.67-.24.29-.37.59-.39.91-.03.32.07.59.28.83.21.24.5.35.87.35.73,0,1.33-.25,1.77-.75.45-.5.88-.75,1.3-.75s.69.09.83.28c.13.18.3.43.51.75.42.58.89.87,1.42.87.47,0,.8-.25.98-.75.18-.5-.01-.96-.59-1.38-.31-.21-.6-.35-.87-.43-.26-.08-.51-.18-.75-.31-.24-.13-.43-.32-.59-.55-.16-.24-.29-.62-.39-1.14-.16-.95-.33-1.88-.51-2.8-.18-.92-.38-1.85-.59-2.8-.74-3.62-1.55-7.31-2.44-11.07-.89-3.75-1.71-7.44-2.44-11.07l-2.05-9.69c-.05-.26-.11-.51-.16-.75-.05-.24-.08-.48-.08-.75l-1.34,4.17ZM206.85,35.52c0-.26.12-.48.35-.67.24-.18.46-.33.67-.43.63-.26.94-.59.94-.98s-.21-.59-.63-.59c-.37,0-.63.11-.79.32-.16.21-.3.45-.43.71-.13.26-.33.5-.59.71-.26.21-.68.32-1.26.32h-1.58c0,.31.05.66.16,1.02.1.37.18.71.24,1.02.58,0,1.05.08,1.42.24.37.16.71.3,1.02.43.32.13.6.24.87.32.26.08.58.04.95-.12-.05-.26-.16-.47-.32-.63-.16-.16-.31-.32-.47-.47s-.29-.32-.39-.47c-.11-.16-.16-.39-.16-.71Z"/><path class="cls-1" d="M221.42,2.44c.26-.37.67-.68,1.22-.95.55-.26,1.14-.39,1.77-.39.53,0,1.01.11,1.46.32.45.21.8.6,1.06,1.18.32.74.33,1.37.04,1.89-.29.53-.57,1-.83,1.42l1.89,2.05c.1.21.24.39.39.55s.32.31.47.47c.58.68,1.3,1.59,2.17,2.72.87,1.13,1.56,2.04,2.09,2.72.42.53.94,1.21,1.58,2.05.63.84,1.26,1.69,1.89,2.56.63.87,1.23,1.71,1.81,2.52.58.81.97,1.43,1.18,1.85.05,0,.09-.01.12-.04.03-.03.07-.04.12-.04l.55-.16c.05,0,.09-.01.12-.04.03-.03.07-.04.12-.04,1.26-.32,2.22-.18,2.87.39.66.58,1.01,1.27,1.06,2.09.05.81-.18,1.6-.71,2.36-.53.76-1.37,1.14-2.52,1.14v.24l.08.24v1.34c0,1-.25,1.72-.75,2.17-.5.45-1.06.67-1.69.67-1.05,0-1.86-.45-2.44-1.34l-3.39,2.68c-.05,0-.08.01-.08.04s-.03.04-.08.04l-.32.24-.16.16c-.53.42-.97.76-1.34,1.02.11.21.2.35.28.43.08.08.2.28.35.59.47.84,1,1.75,1.58,2.72.58.97,1.18,1.96,1.81,2.95.63,1,1.26,1.97,1.89,2.91.63.94,1.21,1.81,1.73,2.6l2.68,3.86c.63-.16,1.26-.2,1.89-.12.63.08,1.18.33,1.65.75.58.42.93.93,1.06,1.54.13.6.07,1.16-.2,1.65-.26.5-.71.88-1.34,1.14-.63.26-1.44.29-2.44.08,0,1-.26,1.83-.79,2.48s-1.16.98-1.89.98c-.32,0-.68-.08-1.1-.24-.42-.16-.79-.45-1.1-.87s-.47-.92-.47-1.5c0-.73.05-1.19.16-1.38.1-.18.17-.33.2-.43.03-.1-.04-.3-.2-.59-.16-.29-.53-.85-1.1-1.69l-7.48-12.37c-.11-.21-.21-.39-.32-.55-.11-.16-.21-.34-.32-.55l-.55-1.1c-.11.05-.29.17-.55.35-.26.18-.54.39-.83.63-.29.24-.55.45-.79.63-.24.18-.41.33-.51.43-.26.11-.42.34-.47.71l-.39,10.08c0,.42-.01.8-.04,1.14-.03.34-.04.72-.04,1.14.42.05.8.28,1.14.67.34.39.59.84.75,1.34.16.5.18,1.02.08,1.58-.11.55-.45,1.04-1.02,1.46-.68.52-1.42.79-2.2.79-.58,0-1.13-.12-1.65-.35s-1.05-.51-1.58-.83c-.26.11-.47.22-.63.35-.16.13-.37.25-.63.35-.47.21-1,.31-1.58.31-1,0-1.68-.39-2.05-1.18-.37-.79-.29-1.63.24-2.52.26-.58.67-1.05,1.22-1.42.55-.37,1.17-.63,1.85-.79v-1.34l.08-2.52v-1.34c0-.26.01-.47.04-.63s.04-.37.04-.63v-1.97c0-.1-.05-.29-.16-.55-.26-.58-.33-1.05-.2-1.42.13-.37.25-.73.35-1.1-.37-.1-.71-.35-1.02-.75-.31-.39-.51-.85-.59-1.38-.08-.52,0-1.08.24-1.65.24-.58.75-1.13,1.54-1.65l.08-28.04c0-.21.03-.51.08-.91.05-.39-.03-.72-.24-.98-.11-.1-.21-.18-.32-.24-.11-.05-.21-.13-.31-.24-.58-.37-1.01-.85-1.3-1.46-.29-.6-.41-1.21-.35-1.81.05-.6.26-1.15.63-1.65.37-.5.92-.85,1.65-1.06.68-.21,1.39-.18,2.13.08.37.16.64.3.83.43.18.13.43.3.75.51ZM221.57,54.66c0-.37.01-.73.04-1.1.03-.37.07-.71.12-1.02l.24-5.43c0-.26.01-.43.04-.51.03-.08.04-.22.04-.43-.31.21-.64.39-.98.55-.34.16-.78.26-1.3.32,0,.74-.03,1.39-.08,1.97-.05.58-.05,1.23,0,1.97l-.16,3.78c-.11.42-.16.71-.16.87s-.13.34-.39.55c-.31.31-.72.49-1.22.51-.5.03-.96.3-1.38.83-.53.63-.59,1.01-.2,1.14.39.13.93-.07,1.61-.59.21-.1.41-.25.59-.43.18-.18.43-.28.75-.28s.58.07.79.2c.21.13.43.28.67.43.24.16.49.3.75.43.26.13.6.2,1.02.2.58,0,.98-.18,1.22-.55.24-.37.09-.73-.43-1.1-.26-.16-.5-.28-.71-.35-.21-.08-.38-.18-.51-.32-.13-.13-.22-.31-.28-.55-.05-.24-.08-.59-.08-1.06ZM222.12,35.05c0-1.52-.01-2.99-.04-4.41-.03-1.42-.04-2.89-.04-4.41,0-.73-.01-1.44-.04-2.13-.03-.68-.04-1.42-.04-2.21,0-2.05-.04-4.21-.12-6.5s-.12-4.48-.12-6.58c0-.42-.03-.76-.08-1.02-.05-.26-.03-.6.08-1.02.1-.42.34-.75.71-.98.37-.24.73-.46,1.1-.67.37-.21.71-.43,1.02-.67.32-.24.47-.56.47-.98-.16-.1-.24-.17-.24-.2,0-.03-.16-.04-.47-.04-.26,0-.51.09-.75.28-.24.18-.49.38-.75.59-.26.21-.53.41-.79.59-.26.18-.53.28-.79.28-.37,0-.71-.16-1.02-.47-.16-.16-.24-.26-.24-.32s-.16-.21-.47-.47c-.53-.21-.92-.29-1.18-.24-.47.21-.71.5-.71.87,0,.42.21.78.63,1.06.42.29.71.49.87.59.37.31.54.68.51,1.1-.03.42-.01.89.04,1.42.05.26.08.53.08.79v1.18l.08.71v.39c0,.53-.01,1.04-.04,1.54-.03.5-.01,1.01.04,1.54,0,.26.01.5.04.71.03.21.04.47.04.79v4.65c.05.42.08,1.38.08,2.87v13.27l-.08.32v.16c.1.05.21.08.32.08s.21.03.31.08c.21.16.42.26.63.31.1-.16.29-.34.55-.55.26-.21.39-.39.39-.55v-1.73ZM219.68,44.9c.42,0,.83-.21,1.22-.63.39-.42.64-.79.75-1.1.1-.26.14-.54.12-.83-.03-.29.04-.56.2-.83.16-.26.38-.5.67-.71.29-.21.56-.42.83-.63.05-.05.1-.08.16-.08l.24-.24c.58-.47,1.42-1.14,2.52-2.01,1.1-.87,2.27-1.76,3.5-2.68,1.23-.92,2.4-1.77,3.5-2.56s1.92-1.31,2.44-1.58c-.11-.26-.18-.5-.24-.71-.05-.21-.11-.45-.16-.71-.11.05-.59.39-1.46,1.02-.87.63-1.81,1.33-2.84,2.09-1.02.76-2,1.5-2.91,2.21-.92.71-1.51,1.14-1.77,1.3l-1.73,1.34c-.16.11-.3.21-.43.31-.13.11-.28.24-.43.39-.42.26-.88.62-1.38,1.06-.5.45-.96.67-1.38.67-.26,0-.53-.08-.79-.24-.26-.16-.55-.24-.87-.24-.37,0-.68.13-.95.39-.53.47-.62.83-.28,1.06.34.24.67.43.98.59.63.26.95.6.95,1.02s-.16.84-.47,1.26c-.11.11-.22.3-.35.59-.13.29-.01.43.35.43ZM223.62,9.14c.37.11.76.45,1.18,1.02.42.58.73,1,.94,1.26.94,1.37,1.97,2.78,3.07,4.25,1.1,1.47,2.18,2.89,3.23,4.25l3.78,4.8c.11.21.24.41.39.59.16.18.31.38.47.59.37.53.62.91.75,1.14.13.24.21.45.24.63.03.18.01.35-.04.51-.05.16-.08.42-.08.79,0,.58.13,1.16.39,1.73.26.58.6.87,1.02.87.21,0,.3-.18.28-.55-.03-.37-.07-.8-.12-1.3-.05-.5-.05-1,0-1.5.05-.5.24-.85.55-1.06.26-.16.55-.24.87-.24s.62-.01.91-.04c.29-.03.54-.1.75-.24.21-.13.32-.41.32-.83s-.12-.64-.35-.67c-.24-.03-.41-.04-.51-.04-.37,0-.76.15-1.18.43-.42.29-.84.43-1.26.43s-.82-.29-1.18-.87c-.84-1.47-1.76-2.84-2.76-4.1l-2.28-2.99c-.37-.58-.74-1.08-1.1-1.5l-2.76-3.54c-.11-.16-.41-.54-.91-1.14-.5-.6-1.01-1.25-1.54-1.93-.53-.68-1.01-1.31-1.46-1.89-.45-.58-.67-.89-.67-.95l-.95.47v1.58ZM223.7,12.05v2.99c0,.58.01,1.06.04,1.46s.04.85.04,1.38v1.5c0,.31.01.56.04.75.03.18.04.41.04.67v2.91c.05.26.09.5.12.71.03.21.01.45-.04.71v2.99c.05.26.09.49.12.67.03.18.04.41.04.67-.05,1-.07,1.98-.04,2.95.03.97.04,1.96.04,2.95.21-.05.44-.21.71-.47l.71-.47c.31-.21.55-.39.71-.55l2.13-1.42c.26-.21.5-.38.71-.51.21-.13.42-.28.63-.43l4.17-3.15c.1-.05.21-.13.32-.24l.71-.47c.05-.05.1-.09.16-.12.05-.03.11-.07.16-.12-.16-.21-.35-.48-.59-.83-.24-.34-.5-.7-.79-1.06-.29-.37-.58-.73-.87-1.1-.29-.37-.51-.66-.67-.87l-2.91-3.78c-.74-.95-1.56-2.06-2.48-3.35-.92-1.29-1.75-2.43-2.48-3.43-.05-.1-.09-.18-.12-.24-.03-.05-.09-.13-.2-.24-.05-.05-.11-.13-.16-.24l-.24-.24ZM228.58,38.59c.1.16.28.46.51.91.24.45.51.93.83,1.46.32.53.62,1.01.91,1.46.29.45.48.75.59.91l7.01,11.89c.1.16.22.35.35.59.13.24.17.49.12.75,0,.26-.05.51-.16.75-.11.24-.16.51-.16.83,0,.79.26,1.18.79,1.18.37,0,.63-.21.79-.63.26-.58.33-1.08.2-1.5-.13-.42-.17-.76-.12-1.02.16-.52.5-.79,1.02-.79.26,0,.5.03.71.08.21.05.37.11.47.16.68.16,1.17.18,1.46.08.29-.1.43-.28.43-.51s-.14-.46-.43-.67c-.29-.21-.67-.32-1.14-.32-.53,0-.98.05-1.38.16-.39.11-.8-.13-1.22-.71-.21-.32-.62-.91-1.22-1.77-.6-.87-1.27-1.86-2.01-2.99-.74-1.13-1.5-2.32-2.28-3.58-.79-1.26-1.52-2.44-2.2-3.54-.68-1.1-1.25-2.03-1.69-2.8-.45-.76-.7-1.22-.75-1.38-.16.05-.39.24-.71.55l-.71.47Z"/><path class="cls-1" d="M253.08,8.74c-.32-.1-.58-.18-.79-.24-1.26-.37-2.09-.95-2.48-1.73-.39-.79-.49-1.58-.28-2.36.21-.79.67-1.48,1.38-2.09.71-.6,1.54-.91,2.48-.91h.63c.52,0,1.13.2,1.81.59s1.08.75,1.18,1.06c.21,0,.34-.04.39-.12.05-.08.13-.17.24-.28.79-.63,1.47-.95,2.05-.95.68,0,1.22.26,1.62.79.39.53.59,1.1.59,1.73,0,.53-.03.84-.08.95-.05.11-.08.29-.08.55.21.11.39.24.55.39.63.53,1.14.98,1.54,1.38.39.39.88.88,1.46,1.46l8.27,8.35c.32.42.58.71.79.87.11.11.17.17.2.2.03.03.17.01.43-.04,1.21-.16,2.34-.01,3.39.43,1.05.45,1.89,1.04,2.52,1.77.63.74.97,1.58,1.02,2.52s-.34,1.81-1.18,2.6c-.53.53-1.37.79-2.52.79-.42.74-.96,1.67-1.61,2.8-.66,1.13-1.22,2.06-1.69,2.8-1.1,1.79-2.23,3.58-3.39,5.4-1.16,1.81-2.36,3.56-3.62,5.24l-5.04,6.77c-.05.05-.08.09-.08.12,0,.03-.03.07-.08.12l-.24.47c-.05.05-.08.09-.08.12s-.03.07-.08.12l-2.84,4.33c.52.63.73,1.33.63,2.09-.11.76-.47,1.38-1.1,1.85-.53.42-1,.68-1.42.79-.42.11-.95.16-1.58.16-.74,0-1.34-.3-1.81-.91-.47-.6-.71-1.35-.71-2.24h-.79c-.68,0-1.29-.2-1.81-.59-.53-.39-.85-.88-.98-1.46-.13-.58-.03-1.19.32-1.85.34-.66.98-1.22,1.93-1.69,0-1.21.04-2.31.12-3.31.08-1,.14-2.07.2-3.23v-1.34c0-.21.01-.39.04-.55.03-.16.04-.37.04-.63s-.01-.5-.04-.71c-.03-.21-.01-.42.04-.63l.31-10.4v-2.68l.16-5.36c.05-2.26.08-4.49.08-6.69v-6.62ZM256.94,8.35c0-.42.06-.7.2-.83.13-.13.3-.25.51-.35.21-.1.47-.26.79-.47.31-.21.66-.58,1.02-1.1.21-.32.34-.56.39-.75.05-.18.08-.46.08-.83,0-.26-.07-.38-.2-.35-.13.03-.28.09-.43.2-.16.11-.32.24-.47.39-.16.16-.26.26-.31.31-.21.26-.41.53-.59.79-.18.26-.49.39-.91.39-.26,0-.46-.05-.59-.16-.13-.1-.25-.21-.35-.32-.11-.16-.25-.37-.43-.63-.18-.26-.39-.5-.63-.71-.24-.21-.53-.35-.87-.43-.34-.08-.75-.04-1.22.12-.11.05-.21.11-.32.16-.11.05-.21.11-.32.16-.11.16-.25.34-.43.55-.18.21-.28.45-.28.71,0,.37.13.66.39.87.26.21.56.37.91.47.34.11.7.2,1.06.28.37.08.63.2.79.35.31.31.47.92.47,1.81v2.91l-.08,1.18v.71c0,1.79-.03,3.57-.08,5.36-.05,1.79-.11,3.57-.16,5.36,0,.26-.01.47-.04.63-.03.16-.04.39-.04.71l-.08,6.62c-.11.42-.13.85-.08,1.3.05.45.05.88,0,1.3,0,.26-.01.49-.04.67-.03.18-.04.41-.04.67l-.08,2.6v1.58l-.24,3.31v1.97l-.08.55v.39c0,.37.01.62.04.75.03.13.04.25.04.35v.43c0,.18-.03.51-.08.98v1.34c.16,0,.39.05.71.16.05-.05.08-.09.08-.12s.03-.07.08-.12l.32-.47c.05-.05.08-.09.08-.12,0-.03.03-.06.08-.12.31-.47.44-.68.39-.63-.05.05-.08-.05-.08-.32,0-.58.03-1.06.08-1.46s.11-.88.16-1.46c.1-1.05.2-2.09.28-3.11.08-1.02.17-2.06.28-3.11l.39-7.8c0-.26.01-.48.04-.67.03-.18.04-.43.04-.75v-1.5c.05-.47.08-1.08.08-1.81v-6.62c0-2.05-.04-4.07-.12-6.06-.08-1.99-.12-4.07-.12-6.22ZM257.1,54.82c0-.32.1-.62.31-.91.21-.29.39-.54.55-.75.42-.58.87-1.21,1.34-1.89.47-.68.96-1.38,1.46-2.09.5-.71.97-1.38,1.42-2.01.45-.63.83-1.15,1.14-1.58.37-.42.96-1.18,1.77-2.28.81-1.1,1.65-2.3,2.52-3.58.87-1.29,1.69-2.52,2.48-3.7.79-1.18,1.34-2.06,1.65-2.64.16-.26.33-.52.51-.79.18-.26.35-.52.51-.79.11-.21.26-.48.47-.83.21-.34.34-.59.39-.75-.53,0-.89-.03-1.1-.08-.21-.05-.5-.18-.87-.39l-2.13,3.23c-.16.26-.31.51-.47.75-.16.24-.34.49-.55.75l-3.15,4.65-2.13,3.07-6.14,9.37c-.42.63-.74,1.05-.94,1.26s-.42.32-.63.32-.46-.07-.75-.2c-.29-.13-.72-.2-1.3-.2-.11,0-.26.05-.47.16-.21.11-.41.25-.59.43-.19.18-.3.37-.36.55-.05.18.03.35.24.51.26.16.6.22,1.02.2.42-.03.81-.04,1.18-.04.47,0,.79.15.95.43.16.29.26.6.31.95.05.34.09.66.12.95.03.29.2.43.51.43.52,0,.93-.09,1.22-.28.29-.18.38-.41.28-.67-.11-.26-.26-.48-.47-.67-.21-.18-.31-.48-.31-.91ZM258.91,12.52c0,.42.01,1.37.04,2.84.03,1.47.05,3.03.08,4.69.03,1.65.05,3.2.08,4.65.03,1.45.01,2.32-.04,2.64-.11.42-.12.88-.04,1.38.08.5.07.96-.04,1.38-.11.42-.16.88-.16,1.38v1.38c0,1.05-.03,1.97-.08,2.76-.05.79-.11,1.71-.16,2.76l-.08,1.34v.24l-.08.24v.87l-.32,3.94c-.05.26-.08.49-.08.67v.67l.94-1.34c.05-.05.08-.09.08-.12s.03-.07.08-.12l.24-.32c0-.05.01-.09.04-.12.03-.03.04-.07.04-.12,1.63-2.36,3.27-4.75,4.92-7.17,1.66-2.41,3.32-4.78,5-7.09.31-.47.55-.8.71-.98.16-.18.26-.32.31-.39.05-.08.05-.16,0-.24-.05-.08-.13-.25-.24-.51-.37-1.1-.41-2.02-.12-2.76.29-.73.48-1.39.59-1.97l-4.02-3.7c-.42-.32-.92-.75-1.5-1.3s-1.08-.98-1.5-1.3c-.58-.52-1.13-1.02-1.65-1.5-.53-.47-1.08-.97-1.65-1.5l-1.42-1.26ZM258.83,9.77c.26.11.45.2.55.28.1.08.26.22.47.43l1.73,1.58c.16.16.31.29.47.39l4.02,3.54c.1.11.18.18.24.24.05.05.13.13.24.24l4.81,4.33c.26.26.56.55.91.87.34.31.51.68.51,1.1,0,.47-.04.8-.12.98-.08.18-.16.37-.24.55-.08.18-.16.43-.24.75-.08.32-.12.84-.12,1.58,0,.42.13.78.39,1.06.26.29.52.43.79.43.31,0,.59-.17.83-.51.24-.34.36-.96.36-1.85v-.91c0-.29.05-.51.16-.67.21-.47.55-.71,1.02-.71.26,0,.54.05.83.16.29.11.51.21.67.31.73.26,1.31.34,1.73.24.42-.1.7-.32.83-.63.13-.31.11-.7-.08-1.14-.18-.45-.56-.83-1.14-1.14-.94-.52-1.76-.72-2.44-.59-.68.13-1.24.17-1.66.12-.53-.05-.93-.24-1.22-.55-.29-.32-.62-.63-.98-.95-.11-.16-.24-.3-.39-.43-.16-.13-.31-.28-.47-.43l-3.46-3.62c-.26-.37-.55-.7-.87-.98-.32-.29-.63-.59-.94-.91l-.16-.16-.16-.24c-.05,0-.08-.01-.08-.04s-.03-.04-.08-.04c0-.05-.01-.08-.04-.08-.03,0-.04-.03-.04-.08l-.24-.24-.94-.95-2.68-2.84c-.21-.21-.37-.38-.47-.51-.11-.13-.24-.25-.39-.35-.11.11-.22.22-.35.35-.13.13-.28.25-.43.35-.16.11-.33.22-.51.35-.18.13-.38.2-.59.2v1.1Z"/><path class="cls-1" d="M65.42,84.42c0-.95.35-1.73,1.06-2.36.71-.63,1.51-.95,2.4-.95,1.1,0,2.07.45,2.91,1.34.47.47.77.93.91,1.38.13.45.3.88.51,1.3h2.05l.79.08c.58.05,1.17.08,1.77.08h1.77c0-.58.33-1.18.98-1.81.66-.63,1.43-.94,2.32-.94s1.59.18,2.09.55c.5.37.91.66,1.22.87l.16-.16.32-.24c.05,0,.08-.01.08-.04s.03-.04.08-.04c.73-.52,1.5-.79,2.28-.79.73,0,1.34.21,1.81.63.47.42.71.95.71,1.58h1.89c.37,0,.66.03.87.08.21.05.47.08.79.08h.79l1.58.08h.79c.1-.63.45-1.22,1.02-1.77.58-.55,1.23-.83,1.97-.83.79,0,1.44.17,1.97.51.52.34.91.78,1.14,1.3.24.53.31,1.12.24,1.77-.08.66-.35,1.27-.83,1.85,0,.05-.01.08-.04.08s-.04.03-.04.08l-.24.24-.16.16.87,1.26c.52,1.05.55,1.96.08,2.72-.47.76-1.16,1.14-2.05,1.14s-1.69-.3-2.4-.91c-.71-.6-1.06-1.33-1.06-2.17h-.63l-1.1.08c-1.47,0-2.93-.03-4.37-.08-1.44-.05-2.9-.13-4.37-.24-.21.42-.29.98-.24,1.69.05.71.1,1.27.16,1.69v1.89c0,.37.01.67.04.91.03.24.04.51.04.83l.08,10.48c0,.31-.01,1.22-.04,2.72-.03,1.5-.05,3.12-.08,4.88-.03,1.76-.07,3.4-.12,4.92-.05,1.52-.11,2.47-.16,2.84l-.08,2.99c0,1.05-.03,2.06-.08,3.03-.05.97-.08,1.98-.08,3.03.1.05.25.09.43.12.18.03.43.12.75.28.21.11.38.21.51.32.13.11.3.21.51.32.47.37.79.76.95,1.18.16.42.24.89.24,1.42,0,.74-.37,1.41-1.1,2.01-.74.6-1.63.91-2.68.91-.74,0-1.33-.12-1.77-.35-.45-.24-.93-.56-1.46-.98l-.39.2c-.16.08-.29.17-.39.28-.42.26-.88.49-1.38.67-.5.18-.98.28-1.46.28-1.31,0-2.26-.58-2.84-1.73-.37-.73-.43-1.47-.2-2.21.24-.73.7-1.31,1.38-1.73.63-.47,1.55-.76,2.76-.87,0-.89.01-1.8.04-2.72.03-.92.12-1.82.28-2.72l.16-3.07c0-.21-.01-.41-.04-.59-.03-.18-.01-.38.04-.59l.32-7.33v-.55l.08-1.02v-.55l.08-2.21v-2.21l.08-2.13c0-1.47.01-2.91.04-4.33.03-1.42.04-2.89.04-4.41l-.08-7.01c-.16.05-.42.09-.79.12-.37.03-.76.04-1.18.04s-.84-.01-1.26-.04c-.42-.03-.76-.04-1.02-.04h-2.44c-.84,0-1.63.05-2.36.16-.42,0-.74.11-.94.32-.32.37-.57.68-.75.95-.18.26-.59.53-1.22.79-.42.21-.92.32-1.5.32-.68,0-1.33-.16-1.93-.47-.6-.31-1.1-.73-1.5-1.26-.39-.52-.64-1.1-.75-1.73-.11-.63.03-1.29.39-1.97.1-.26.24-.45.39-.55.16-.1.31-.26.47-.47-.05-.26-.21-.58-.47-.95-.26-.37-.39-.92-.39-1.65ZM68.65,83.08c-.16,0-.32.07-.47.2-.16.13-.29.25-.39.35-.26.37-.32.74-.16,1.1.1.42.26.74.47.95.21.21.45.45.71.71.26.26.41.59.43.98.03.39-.15.7-.51.91-.16.16-.33.24-.51.24s-.35.05-.51.16c-.32.16-.49.38-.51.67-.03.29.04.56.2.83.16.26.39.5.71.71.31.21.66.32,1.02.32.52,0,.91-.12,1.14-.35s.47-.48.71-.75c.24-.26.55-.52.95-.79.39-.26,1.01-.39,1.85-.39l6.62-.08c-.11-.26-.25-.51-.43-.75-.18-.24-.3-.54-.35-.91h-7.4c-.47-.1-.79-.38-.95-.83-.16-.45-.31-.91-.47-1.38-.16-.47-.37-.91-.63-1.3-.26-.39-.76-.59-1.5-.59ZM86.37,96.79c0-.32-.03-.55-.08-.71-.05-.16-.08-.37-.08-.63,0-.47.01-.95.04-1.42.03-.47.01-.89-.04-1.26-.11-.84-.11-1.65,0-2.44.1-.79.5-1.42,1.18-1.89.21-.16.43-.39.67-.71.24-.32.46-.58.67-.79.63-.73.94-1.29.94-1.65s-.16-.55-.47-.55c-.47,0-1,.32-1.58.95-.11.16-.29.38-.55.67-.26.29-.58.43-.95.43-.26,0-.55-.16-.87-.47-.42-.42-.76-.79-1.02-1.1-.26-.32-.76-.47-1.5-.47-.21,0-.42.12-.63.35-.21.24-.33.51-.35.83-.03.32.05.67.24,1.06.18.39.59.75,1.22,1.06.42.26.75.46.98.59.24.13.41.46.51.98.1.42.16.87.16,1.34s.03,1,.08,1.58c0,.26.01.5.04.71.03.21.04.47.04.79v6.14c0,.26-.01.47-.04.63-.03.16-.04.39-.04.71v2.84c0,1.21-.05,2.57-.16,4.1-.11,1.52-.16,2.89-.16,4.1,0,.32-.01.55-.04.71-.03.16-.04.37-.04.63s.01.51.04.75c.03.24.01.46-.04.67l-.24,5.51c-.11.42-.15.87-.12,1.34.03.47.01.92-.04,1.34l-.39,6.62c0,.32-.01.56-.04.75-.03.18-.04.38-.04.59-.05.53-.08.98-.08,1.38s-.13.72-.39.98c-.26.32-.59.47-.98.47s-.8.05-1.22.16c-.53.16-.91.37-1.14.63-.24.26-.34.53-.31.79.03.26.14.5.35.71.21.21.47.31.79.31.68,0,1.29-.28,1.81-.83.52-.55,1.1-.83,1.73-.83.37,0,.68.11.95.31.26.16.58.38.95.67.37.29.76.43,1.18.43.89,0,1.48-.24,1.77-.71.29-.47-.01-.92-.91-1.34-.26-.1-.55-.18-.87-.24-.32-.05-.62-.17-.91-.35-.29-.18-.5-.46-.63-.83-.13-.37-.15-.92-.04-1.65.05-.21.08-.42.08-.63v-2.17c0-.34.03-.77.08-1.3l.08-.87v-.47l.16-6.38c.05-.42.08-.93.08-1.54s.01-1.22.04-1.85c.03-.63.04-1.21.04-1.73s.03-.92.08-1.18c.05-.26.08-.84.08-1.73v-7.96l-.08-6.93ZM101.1,88.36c0-.26.07-.48.2-.67.13-.18.25-.35.35-.51.47-.47.77-.89.91-1.26.13-.37.14-.67.04-.91-.11-.24-.26-.42-.47-.55-.21-.13-.42-.2-.63-.2-.31,0-.55.09-.71.28-.16.18-.29.39-.39.63-.11.24-.17.46-.2.67-.03.21-.07.37-.12.47-.26.53-.66.78-1.18.75-.53-.03-.95-.04-1.26-.04-.21,0-.63-.01-1.26-.04-.63-.03-1.3-.05-2.01-.08-.71-.03-1.37-.07-1.97-.12-.6-.05-.96-.08-1.06-.08-.05.11-.12.25-.2.43-.08.18-.17.33-.28.43-.11.11-.21.22-.32.35-.11.13-.18.28-.24.43h1.58c.32,0,.58.01.79.04.21.03.45.04.71.04h1.58c.32,0,.58.01.79.04.21.03.45.04.71.04h3.23c.73,0,1.1.25,1.1.75v.98c0,.37.18.66.55.87.37.21.68.32.95.32s.39-.08.39-.24c0-.32-.08-.59-.24-.83-.16-.24-.34-.46-.55-.67-.21-.21-.39-.42-.55-.63-.16-.21-.24-.45-.24-.71Z"/><path class="cls-1" d="M131.82,84.9c.1-.26.18-.48.24-.67.05-.18.16-.41.31-.67.73-1.21,1.84-1.81,3.31-1.81.94,0,1.76.34,2.44,1.02.52.58.83,1.17.91,1.77.08.6.05,1.17-.08,1.69-.13.53-.32.98-.55,1.38-.24.39-.38.72-.43.98.26.11.48.28.67.51.18.24.33.49.43.75.37.68.52,1.38.47,2.09-.05.71-.37,1.35-.95,1.93l-.39.39c-.11.11-.26.21-.47.31-.42.21-.97.32-1.65.32-1.21,0-2.14-.41-2.8-1.22-.66-.81-.98-1.8-.98-2.95-.26,0-.67.01-1.22.04-.55.03-1.14.07-1.77.12-.63.05-1.23.11-1.81.16-.58.05-1.05.11-1.42.16l-8.03.87c-.11,0-.18.01-.24.04-.05.03-.13.04-.24.04l-.95.16c-.11,0-.18.01-.24.04-.05.03-.13.04-.24.04l.16,5.51v.31l.08.47v1.46c0,.34.03.7.08,1.06.1.68.13,1.42.08,2.21-.05.79-.03,1.55.08,2.28.05.37.07.72.04,1.06-.03.34-.01.72.04,1.14v.32l.08.47v1.42c.42-.1.85-.18,1.3-.24.45-.05.88-.1,1.3-.16.52-.1,1.15-.18,1.89-.24.73-.05,1.48-.1,2.24-.16.76-.05,1.51-.08,2.24-.08h1.89l.24-.71c.31-.73.85-1.36,1.61-1.89.76-.52,1.56-.79,2.4-.79s1.52.26,2.05.79c.26.32.46.58.59.79.13.21.25.58.35,1.1.1.47.08.92-.08,1.34-.16.42-.34.79-.55,1.1-.21.32-.43.59-.67.83s-.41.43-.51.59c.26.42.55.92.87,1.5.32.58.47,1.23.47,1.97,0,1.05-.33,1.85-.98,2.4-.66.55-1.41.83-2.24.83-.89,0-1.68-.31-2.36-.94-.68-.63-1.08-1.39-1.18-2.28-.26,0-.51-.01-.75-.04-.24-.03-.49-.01-.75.04l-9.22.95v9.61l-.08,2.6v1.42c.32,0,.56-.01.75-.04.18-.03.46-.04.83-.04h2.36c.42,0,.76.01,1.02.04.26.03.55.04.87.04h.95l1.73.08h1.89l1.81.16h.95c.26,0,.43.01.51.04.08.03.2.04.35.04h.95c.89.11,1.4.15,1.54.12.13-.03.33-.2.59-.51l.55-.63c.73-.73,1.65-1.1,2.76-1.1,1,0,1.84.32,2.52.95.58.47.91,1.1.98,1.89s-.09,1.47-.51,2.05c-.16.26-.34.46-.55.59-.21.13-.37.25-.47.35.05.16.13.34.24.55.1.21.21.42.32.63.37.89.34,1.79-.08,2.68-.42.89-1.18,1.34-2.28,1.34-.84,0-1.56-.16-2.17-.47-.6-.31-1.19-.71-1.77-1.18-.32-.26-.53-.5-.63-.71-.11-.21-.37-.34-.79-.39l-2.52-.16c-1.68-.05-3.34-.13-4.96-.24-1.63-.1-3.28-.16-4.96-.16-.11.42-.47.8-1.1,1.14-.63.34-1.34.51-2.13.51-.58,0-1.16-.16-1.73-.47-.26-.1-.47-.25-.63-.43-.16-.18-.34-.3-.55-.35-.21.16-.39.31-.55.47-.16.16-.37.32-.63.47-.63.26-1.18.39-1.65.39-.95,0-1.71-.37-2.28-1.1l-.24-.39c-.11-.26-.17-.55-.2-.87-.03-.31-.04-.6-.04-.87,0-.84.34-1.75,1.02-2.72.68-.97,1.44-1.54,2.28-1.69v-1.58l-.08-2.99v-6.54c0-.26.01-.47.04-.63.03-.16.04-.37.04-.63v-3.54l.08-1.26v-.71c0-1.84.03-3.65.08-5.43.05-1.78.08-3.6.08-5.43v-1.93c0-.66-.03-1.33-.08-2.01l-.16-1.42v-.79c-.05-.05-.13-.08-.24-.08l-.55-.24c-.53-.21-.96-.54-1.3-.98-.34-.45-.51-.96-.51-1.54,0-.84.1-1.38.32-1.61.21-.24.5-.62.87-1.14-.79-.52-1.23-1.15-1.34-1.89-.11-.73.03-1.4.39-2.01.37-.6.92-1.09,1.65-1.46.73-.37,1.52-.47,2.36-.31.58.11,1.01.31,1.3.63.29.32.56.68.83,1.1.21-.1.58-.2,1.1-.28.52-.08,1.09-.14,1.69-.2.6-.05,1.21-.1,1.81-.16.6-.05,1.06-.1,1.38-.16l5.28-.39,5.59.08ZM114.33,96.32v-.63l.08-1.1v-.63c-.26.16-.43.32-.51.47-.08.16-.41.39-.98.71.05.11.1.55.16,1.34.05.79.09,1.65.12,2.6.03.95.05,1.86.08,2.76.03.89.04,1.5.04,1.81,0,.47-.01,1.34-.04,2.6-.03,1.26-.05,2.72-.08,4.37-.03,1.65-.05,3.39-.08,5.2-.03,1.81-.04,3.54-.04,5.2v4.33c0,1.23.03,2.09.08,2.56,0,.21.01.47.04.79.03.31.04.64.04.98s-.01.66-.04.95c-.03.29-.07.51-.12.67-.16.37-.47.66-.95.87-.63.31-1.13.7-1.5,1.14-.37.45-.6.87-.71,1.26-.11.39-.09.74.04,1.02.13.29.35.43.67.43.21,0,.52-.13.95-.39.26-.26.45-.47.55-.63.21-.26.41-.5.59-.71.18-.21.46-.32.83-.32s.68.13.95.39c.21.21.35.41.43.59.08.18.18.34.32.47.13.13.3.24.51.32.21.08.58.12,1.1.12.21,0,.43-.08.67-.24.24-.16.39-.37.47-.63.08-.26.05-.54-.08-.83-.13-.29-.46-.59-.98-.91-.32-.16-.62-.26-.91-.32-.29-.05-.53-.14-.71-.28-.18-.13-.34-.34-.47-.63-.13-.29-.2-.77-.2-1.46,0-.26.01-.46.04-.59.03-.13.04-.33.04-.59v-8.59c0-4.15-.07-8.22-.2-12.21-.13-3.99-.2-8.09-.2-12.29ZM137.57,91.28c0-.16-.05-.33-.16-.51-.11-.18-.21-.33-.32-.43-.21-.16-.43-.3-.67-.43-.24-.13-.43-.3-.59-.51-.16-.21-.22-.47-.2-.79.03-.31.22-.79.59-1.42.52-.84.79-1.51.79-2.01s-.12-.87-.35-1.1-.53-.35-.87-.35-.64.08-.91.24c-.11.11-.21.21-.31.32-.11.11-.21.24-.32.39-.11.21-.17.37-.2.47-.03.11-.07.26-.12.47-.21.74-.58,1.14-1.1,1.22-.53.08-1.08.07-1.65-.04-.26-.05-.78-.07-1.54-.04-.76.03-1.56.05-2.4.08-.84.03-1.64.07-2.4.12-.76.05-1.3.08-1.61.08l-5.36.63c-.42.11-1.02.22-1.81.35-.79.13-1.34.2-1.65.2-.47,0-.75-.12-.83-.35-.08-.24-.17-.48-.28-.75-.16-.52-.55-.79-1.18-.79-.37,0-.72.11-1.06.32-.34.21-.51.47-.51.79,0,.42.17.72.51.91.34.18.67.35.98.51.32.16.55.39.71.71.16.42.08.75-.24.98-.32.24-.58.43-.79.59-.42.32-.68.64-.79.98-.11.34-.09.63.04.87.13.24.35.35.67.35s.68-.21,1.1-.63.67-.8.75-1.14c.08-.34.25-.62.51-.83.37-.31,1.01-.52,1.93-.63.92-.1,1.61-.18,2.09-.24l2.91-.32c.94-.1,2.01-.18,3.19-.24,1.18-.05,2.11-.13,2.8-.24l6.14-.32c.58,0,.92.3,1.02.91.1.6.18,1.01.24,1.22.16.68.41,1.17.75,1.46.34.29.7.43,1.06.43.42,0,.76-.13,1.02-.39s.39-.63.39-1.1ZM130.48,112.15c0-.42.14-.73.43-.95.29-.21.56-.42.83-.63.42-.32.72-.66.91-1.02.18-.37.24-.68.16-.95-.08-.26-.26-.45-.55-.55-.29-.1-.67-.05-1.14.16l-.55.31c-.47.37-.74.75-.79,1.14-.05.39-.12.74-.2,1.02-.08.29-.28.5-.59.63-.32.13-.95.15-1.89.04l-10.24.71v2.44c.32,0,.66-.04,1.02-.12.37-.08.71-.14,1.02-.2.16,0,.31-.01.47-.04.16-.03.34-.04.55-.04l2.21-.24c.21,0,.39-.01.55-.04.16-.03.31-.04.47-.04.58,0,1.29-.05,2.13-.16.84-.1,1.58-.13,2.21-.08,1.1.11,1.73.38,1.89.83.16.45.31.93.47,1.46.1.42.29.72.55.91.26.18.52.28.79.28.68,0,1.02-.37,1.02-1.1,0-.47-.09-.85-.28-1.14-.18-.29-.38-.56-.59-.83-.21-.26-.41-.52-.59-.79-.18-.26-.28-.6-.28-1.02ZM136.31,133.89c0-.32.13-.56.39-.75.26-.18.52-.3.79-.35.58-.1.95-.28,1.1-.51.16-.24.2-.47.12-.71-.08-.24-.26-.45-.55-.63-.29-.18-.62-.28-.98-.28-.68,0-1.23.34-1.65,1.02-.53.84-1.06,1.23-1.61,1.18-.55-.05-1.35-.08-2.4-.08l-5.04-.24h-.63l-1.18-.08h-.63l-2.52-.16c-.42-.05-.83-.08-1.22-.08h-1.3c.21.26.38.47.51.63.13.16.25.42.35.79.16.37.24.59.24.67s.21.09.63.04l11.11.39c.52.05.91.11,1.14.16.24.05.42.12.55.2.13.08.25.2.35.35.1.16.29.37.55.63.47.47.96.83,1.46,1.06.5.24.93.35,1.3.35.42,0,.63-.16.63-.47,0-.37-.08-.68-.24-.95-.16-.26-.33-.5-.51-.71-.18-.21-.35-.43-.51-.67s-.24-.51-.24-.83Z"/><path class="cls-1" d="M167.89,84.9c.1-.26.18-.48.24-.67.05-.18.16-.41.31-.67.73-1.21,1.84-1.81,3.31-1.81.94,0,1.76.34,2.44,1.02.52.58.83,1.17.91,1.77.08.6.05,1.17-.08,1.69-.13.53-.32.98-.55,1.38-.24.39-.38.72-.43.98.26.11.48.28.67.51.18.24.33.49.43.75.37.68.52,1.38.47,2.09-.05.71-.37,1.35-.95,1.93l-.39.39c-.11.11-.26.21-.47.31-.42.21-.97.32-1.65.32-1.21,0-2.14-.41-2.8-1.22-.66-.81-.98-1.8-.98-2.95-.26,0-.67.01-1.22.04-.55.03-1.14.07-1.77.12-.63.05-1.23.11-1.81.16-.58.05-1.05.11-1.42.16l-8.03.87c-.11,0-.18.01-.24.04-.05.03-.13.04-.24.04l-.95.16c-.11,0-.18.01-.24.04-.05.03-.13.04-.24.04l.16,5.51v.31l.08.47v1.46c0,.34.03.7.08,1.06.1.68.13,1.42.08,2.21-.05.79-.03,1.55.08,2.28.05.37.07.72.04,1.06-.03.34-.01.72.04,1.14v.32l.08.47v1.42c.42-.1.85-.18,1.3-.24.45-.05.88-.1,1.3-.16.52-.1,1.15-.18,1.89-.24.73-.05,1.48-.1,2.24-.16.76-.05,1.51-.08,2.24-.08h1.89l.24-.71c.31-.73.85-1.36,1.61-1.89.76-.52,1.56-.79,2.4-.79s1.52.26,2.05.79c.26.32.46.58.59.79.13.21.25.58.35,1.1.1.47.08.92-.08,1.34-.16.42-.34.79-.55,1.1-.21.32-.43.59-.67.83s-.41.43-.51.59c.26.42.55.92.87,1.5.32.58.47,1.23.47,1.97,0,1.05-.33,1.85-.98,2.4-.66.55-1.41.83-2.24.83-.89,0-1.68-.31-2.36-.94-.68-.63-1.08-1.39-1.18-2.28-.26,0-.51-.01-.75-.04-.24-.03-.49-.01-.75.04l-9.22.95v9.61l-.08,2.6v1.42c.32,0,.56-.01.75-.04.18-.03.46-.04.83-.04h2.36c.42,0,.76.01,1.02.04.26.03.55.04.87.04h.95l1.73.08h1.89l1.81.16h.95c.26,0,.43.01.51.04.08.03.2.04.35.04h.95c.89.11,1.4.15,1.54.12.13-.03.33-.2.59-.51l.55-.63c.73-.73,1.65-1.1,2.76-1.1,1,0,1.84.32,2.52.95.58.47.91,1.1.98,1.89s-.09,1.47-.51,2.05c-.16.26-.34.46-.55.59-.21.13-.37.25-.47.35.05.16.13.34.24.55.1.21.21.42.32.63.37.89.34,1.79-.08,2.68-.42.89-1.18,1.34-2.28,1.34-.84,0-1.56-.16-2.17-.47-.6-.31-1.19-.71-1.77-1.18-.32-.26-.53-.5-.63-.71-.11-.21-.37-.34-.79-.39l-2.52-.16c-1.68-.05-3.34-.13-4.96-.24-1.63-.1-3.28-.16-4.96-.16-.11.42-.47.8-1.1,1.14-.63.34-1.34.51-2.13.51-.58,0-1.16-.16-1.73-.47-.26-.1-.47-.25-.63-.43-.16-.18-.34-.3-.55-.35-.21.16-.39.31-.55.47-.16.16-.37.32-.63.47-.63.26-1.18.39-1.65.39-.95,0-1.71-.37-2.28-1.1l-.24-.39c-.11-.26-.17-.55-.2-.87-.03-.31-.04-.6-.04-.87,0-.84.34-1.75,1.02-2.72.68-.97,1.44-1.54,2.28-1.69v-1.58l-.08-2.99v-6.54c0-.26.01-.47.04-.63.03-.16.04-.37.04-.63v-3.54l.08-1.26v-.71c0-1.84.03-3.65.08-5.43.05-1.78.08-3.6.08-5.43v-1.93c0-.66-.03-1.33-.08-2.01l-.16-1.42v-.79c-.05-.05-.13-.08-.24-.08l-.55-.24c-.53-.21-.96-.54-1.3-.98-.34-.45-.51-.96-.51-1.54,0-.84.1-1.38.32-1.61.21-.24.5-.62.87-1.14-.79-.52-1.23-1.15-1.34-1.89-.11-.73.03-1.4.39-2.01.37-.6.92-1.09,1.65-1.46.73-.37,1.52-.47,2.36-.31.58.11,1.01.31,1.3.63.29.32.56.68.83,1.1.21-.1.58-.2,1.1-.28.52-.08,1.09-.14,1.69-.2.6-.05,1.21-.1,1.81-.16.6-.05,1.06-.1,1.38-.16l5.28-.39,5.59.08ZM150.4,96.32v-.63l.08-1.1v-.63c-.26.16-.43.32-.51.47-.08.16-.41.39-.98.71.05.11.1.55.16,1.34.05.79.09,1.65.12,2.6.03.95.05,1.86.08,2.76.03.89.04,1.5.04,1.81,0,.47-.01,1.34-.04,2.6-.03,1.26-.05,2.72-.08,4.37-.03,1.65-.05,3.39-.08,5.2-.03,1.81-.04,3.54-.04,5.2v4.33c0,1.23.03,2.09.08,2.56,0,.21.01.47.04.79.03.31.04.64.04.98s-.01.66-.04.95c-.03.29-.07.51-.12.67-.16.37-.47.66-.95.87-.63.31-1.13.7-1.5,1.14-.37.45-.6.87-.71,1.26-.11.39-.09.74.04,1.02.13.29.35.43.67.43.21,0,.52-.13.95-.39.26-.26.45-.47.55-.63.21-.26.41-.5.59-.71.18-.21.46-.32.83-.32s.68.13.95.39c.21.21.35.41.43.59.08.18.18.34.32.47.13.13.3.24.51.32.21.08.58.12,1.1.12.21,0,.43-.08.67-.24.24-.16.39-.37.47-.63.08-.26.05-.54-.08-.83-.13-.29-.46-.59-.98-.91-.32-.16-.62-.26-.91-.32-.29-.05-.53-.14-.71-.28-.18-.13-.34-.34-.47-.63-.13-.29-.2-.77-.2-1.46,0-.26.01-.46.04-.59.03-.13.04-.33.04-.59v-8.59c0-4.15-.07-8.22-.2-12.21-.13-3.99-.2-8.09-.2-12.29ZM173.64,91.28c0-.16-.05-.33-.16-.51-.11-.18-.21-.33-.32-.43-.21-.16-.43-.3-.67-.43-.24-.13-.43-.3-.59-.51-.16-.21-.22-.47-.2-.79.03-.31.22-.79.59-1.42.52-.84.79-1.51.79-2.01s-.12-.87-.35-1.1-.53-.35-.87-.35-.64.08-.91.24c-.11.11-.21.21-.31.32-.11.11-.21.24-.32.39-.11.21-.17.37-.2.47-.03.11-.07.26-.12.47-.21.74-.58,1.14-1.1,1.22-.53.08-1.08.07-1.65-.04-.26-.05-.78-.07-1.54-.04-.76.03-1.56.05-2.4.08-.84.03-1.64.07-2.4.12-.76.05-1.3.08-1.61.08l-5.36.63c-.42.11-1.02.22-1.81.35-.79.13-1.34.2-1.65.2-.47,0-.75-.12-.83-.35-.08-.24-.17-.48-.28-.75-.16-.52-.55-.79-1.18-.79-.37,0-.72.11-1.06.32-.34.21-.51.47-.51.79,0,.42.17.72.51.91.34.18.67.35.98.51.32.16.55.39.71.71.16.42.08.75-.24.98-.32.24-.58.43-.79.59-.42.32-.68.64-.79.98-.11.34-.09.63.04.87.13.24.35.35.67.35s.68-.21,1.1-.63.67-.8.75-1.14c.08-.34.25-.62.51-.83.37-.31,1.01-.52,1.93-.63.92-.1,1.61-.18,2.09-.24l2.91-.32c.94-.1,2.01-.18,3.19-.24,1.18-.05,2.11-.13,2.8-.24l6.14-.32c.58,0,.92.3,1.02.91.1.6.18,1.01.24,1.22.16.68.41,1.17.75,1.46.34.29.7.43,1.06.43.42,0,.76-.13,1.02-.39s.39-.63.39-1.1ZM166.55,112.15c0-.42.14-.73.43-.95.29-.21.56-.42.83-.63.42-.32.72-.66.91-1.02.18-.37.24-.68.16-.95-.08-.26-.26-.45-.55-.55-.29-.1-.67-.05-1.14.16l-.55.31c-.47.37-.74.75-.79,1.14-.05.39-.12.74-.2,1.02-.08.29-.28.5-.59.63-.32.13-.95.15-1.89.04l-10.24.71v2.44c.32,0,.66-.04,1.02-.12.37-.08.71-.14,1.02-.2.16,0,.31-.01.47-.04.16-.03.34-.04.55-.04l2.21-.24c.21,0,.39-.01.55-.04.16-.03.31-.04.47-.04.58,0,1.29-.05,2.13-.16.84-.1,1.58-.13,2.21-.08,1.1.11,1.73.38,1.89.83.16.45.31.93.47,1.46.1.42.29.72.55.91.26.18.52.28.79.28.68,0,1.02-.37,1.02-1.1,0-.47-.09-.85-.28-1.14-.18-.29-.38-.56-.59-.83-.21-.26-.41-.52-.59-.79-.18-.26-.28-.6-.28-1.02ZM172.38,133.89c0-.32.13-.56.39-.75.26-.18.52-.3.79-.35.58-.1.95-.28,1.1-.51.16-.24.2-.47.12-.71-.08-.24-.26-.45-.55-.63-.29-.18-.62-.28-.98-.28-.68,0-1.23.34-1.65,1.02-.53.84-1.06,1.23-1.61,1.18-.55-.05-1.35-.08-2.4-.08l-5.04-.24h-.63l-1.18-.08h-.63l-2.52-.16c-.42-.05-.83-.08-1.22-.08h-1.3c.21.26.38.47.51.63.13.16.25.42.35.79.16.37.24.59.24.67s.21.09.63.04l11.11.39c.52.05.91.11,1.14.16.24.05.42.12.55.2.13.08.25.2.35.35.1.16.29.37.55.63.47.47.96.83,1.46,1.06.5.24.93.35,1.3.35.42,0,.63-.16.63-.47,0-.37-.08-.68-.24-.95-.16-.26-.33-.5-.51-.71-.18-.21-.35-.43-.51-.67s-.24-.51-.24-.83Z"/><path class="cls-1" d="M192.07,84.19c0-1,.45-1.86,1.34-2.6.89-.73,1.79-1.1,2.68-1.1.79,0,1.51.25,2.17.75.66.5,1.11,1.22,1.38,2.17.84-.42,1.76-.45,2.76-.08.37.16.7.42.98.79.29.37.43.76.43,1.18,0,.32-.03.59-.08.83-.05.24.03.43.24.59.16.21.29.35.39.43.1.08.21.22.31.43l.39.39,3.94,4.57c.52.63.89,1.06,1.1,1.3.21.24.38.39.51.47.13.08.28.12.43.12s.42.03.79.08c1.26.16,2.26.68,2.99,1.58.37.47.62.98.75,1.54.13.55.12,1.06-.04,1.54-.16.47-.45.88-.87,1.22-.42.34-1,.51-1.73.51v1.26c0,.37-.03.63-.08.79-.21.74-.58,1.33-1.1,1.77-.53.45-1.16.67-1.89.67-.47,0-.92-.1-1.34-.32-.42-.26-.74-.52-.94-.79-.26-.26-.5-.63-.71-1.1-.21-.47-.31-.95-.31-1.42,0-.42.01-.66.04-.71.03-.05-.09-.24-.36-.55l-5.36-6.85c-.05-.1-.18-.3-.39-.59-.21-.29-.41-.58-.59-.87-.18-.29-.37-.56-.55-.83-.18-.26-.33-.42-.43-.47,0,.11-.05.28-.16.51-.11.24-.18.41-.24.51l-.87,2.05-1.89,3.94c-.42.79-.84,1.6-1.26,2.44-.42.84-.81,1.65-1.18,2.44-.11.21-.25.5-.43.87-.18.37-.38.75-.59,1.14-.21.39-.39.76-.55,1.1-.16.34-.26.62-.32.83h.16l.31-.08h.16c1.21,0,2.55.03,4.02.08,1.47.05,2.95.15,4.45.28,1.5.13,2.98.28,4.45.43,1.47.16,2.81.34,4.02.55.21.05.37.09.47.12.1.03.26.04.47.04.37,0,.89-.17,1.58-.51.68-.34,1.37-.51,2.05-.51.89,0,1.71.25,2.44.75.73.5,1.02,1.25.87,2.24-.05.26-.16.58-.31.94-.16.37-.37.71-.63,1.02-.26.31-.54.6-.83.87-.29.26-.59.42-.91.47,0,.05.01.09.04.12.03.03.04.07.04.12l.08.24c.05.05.08.13.08.24.37.84.52,1.61.47,2.32-.05.71-.22,1.31-.51,1.81-.29.5-.67.88-1.14,1.14-.47.26-.97.39-1.5.39-.42,0-.84-.08-1.26-.24l-1.1,2.05c-1,1.68-1.98,3.36-2.95,5.04-.97,1.68-1.9,3.36-2.8,5.04-.42.68-.81,1.37-1.18,2.05-.37.68-.76,1.34-1.18,1.97.1.16.22.28.35.35.13.08.25.22.36.43.58.79.75,1.65.51,2.6s-.75,1.68-1.54,2.21c-.63.47-1.39.71-2.28.71s-1.63-.29-2.21-.87c-.26-.26-.46-.55-.59-.87-.13-.31-.28-.63-.43-.95-.16.11-.43.18-.83.24-.39.05-.7.08-.91.08-.89.11-1.64-.13-2.24-.71-.6-.58-.91-1.31-.91-2.21,0-.52.08-1.02.24-1.5-.26-.16-.55-.47-.87-.95-.32-.47-.58-.84-.79-1.1-.26-.37-.53-.71-.79-1.02-.26-.32-.53-.66-.79-1.02-.68-.89-1.16-1.55-1.42-1.97-.26-.42-.5-.71-.71-.87-.21-.16-.45-.22-.71-.2-.26.03-.71.01-1.34-.04-.53,0-1.01-.12-1.46-.35-.45-.24-.78-.51-.98-.83-.63-.84-.74-1.81-.31-2.91.31-.95.79-1.71,1.42-2.28.63-.58,1.52-.87,2.68-.87.21-.42.37-.72.47-.91.1-.18.34-.43.71-.75.26-.26.52-.5.79-.71.26-.21.6-.37,1.02-.47.73-.21,1.35-.2,1.85.04.5.24.87.59,1.1,1.06.24.47.33,1.02.28,1.65-.05.63-.26,1.26-.63,1.89-.05.16-.11.24-.16.24l4.33,6.14c.1.16.33.51.67,1.06.34.55.59.85.75.91.05-.1.29-.5.71-1.18.42-.68.91-1.42,1.46-2.21.55-.79,1.08-1.54,1.58-2.24.5-.71.83-1.17.98-1.38l4.1-5.99c.26-.42.67-.95,1.22-1.58.55-.63.88-1.02.98-1.18-.11,0-.3-.01-.59-.04-.29-.03-.51-.07-.67-.12l-8.27-.55h-.87l-1.81-.24h-.87c-.53,0-.92-.03-1.18-.08-.21-.05-.42-.07-.63-.04-.21.03-.42.04-.63.04h-.24l-.63-.16h-.24c-.16,0-.42.09-.79.28-.37.18-.84.28-1.42.28-.68,0-1.31-.26-1.89-.79-.58-.52-.95-1.13-1.1-1.81-.37.21-.81.39-1.34.55-.53.16-1,.24-1.42.24-.68,0-1.22-.2-1.61-.59-.39-.39-.62-.87-.67-1.42-.05-.55.04-1.15.28-1.81.24-.66.64-1.25,1.22-1.77.26-.26.6-.47,1.02-.63.42-.16.68-.29.79-.39.1-.16.21-.33.32-.51.1-.18.21-.38.31-.59.21-.42.41-.8.59-1.14.18-.34.38-.7.59-1.06l2.36-4.49c.21-.37.41-.73.59-1.1.18-.37.38-.73.59-1.1l.95-1.65,1.81-3.39.95-1.65c.1-.1.17-.22.2-.35.03-.13.09-.28.2-.43.1-.21.24-.46.39-.75.16-.29.26-.56.32-.83-.58-.1-.97-.5-1.18-1.18-.21-.68-.32-1.26-.32-1.73ZM194.28,84.58c0,.21.08.38.24.51.16.13.34.26.55.39.21.13.39.32.55.55s.24.56.24.98c0,.21-.07.51-.2.91-.13.39-.29.79-.47,1.18-.18.39-.37.78-.55,1.14-.18.37-.35.66-.51.87l-6.54,12.13c-.16.31-.29.55-.39.71-.16.26-.34.62-.55,1.06-.21.45-.43.88-.67,1.3-.24.42-.49.8-.75,1.14-.26.34-.55.56-.87.67-.42.21-.7.33-.83.35-.13.03-.35.2-.67.51-.16.21-.3.45-.43.71-.13.26-.15.55-.04.87.47,0,.8-.03.98-.08.18-.05.43-.16.75-.32.42-.21.7-.37.83-.47.13-.1.46-.16.98-.16.42,0,.72.2.91.59.18.39.35.8.51,1.22.16.42.37.76.63,1.02.26.26.68.24,1.26-.08.21-.1.39-.28.55-.51.16-.24.24-.51.24-.83s-.08-.59-.24-.83-.31-.46-.47-.67c-.16-.21-.32-.39-.47-.55-.16-.16-.24-.42-.24-.79,0-.42.07-.75.2-.98.13-.24.28-.51.43-.83l.79-1.5c.84-1.63,1.73-3.39,2.68-5.28.95-1.89,1.79-3.62,2.52-5.2.31-.73.66-1.52,1.02-2.36.37-.84.71-1.6,1.02-2.28.32-.63.63-1.08.95-1.34.31-.26.62-.45.91-.55.29-.1.6-.21.94-.32.34-.1.7-.34,1.06-.71.26-.26.48-.6.67-1.02.18-.42.09-.63-.28-.63-.74,0-1.22.17-1.46.51-.24.34-.62.51-1.14.51-.58,0-.93-.18-1.06-.55-.13-.37-.25-.81-.35-1.34-.16-1.1-.63-1.65-1.42-1.65-.42,0-.83.18-1.22.55-.39.37-.59.84-.59,1.42ZM187.97,122.94c0-.26.07-.5.2-.71.13-.21.25-.42.35-.63.1-.21.2-.43.28-.67.08-.24.07-.54-.04-.91-.42,0-.8.15-1.14.43-.34.29-.59.64-.75,1.06-.11.21-.17.46-.2.75-.03.29-.09.49-.2.59-.26.42-.6.63-1.02.63-.26,0-.51-.07-.75-.2-.24-.13-.41-.2-.51-.2-.32,0-.64.24-.98.71-.34.47-.51.89-.51,1.26,0,.42.13.67.39.75.26.08.68.12,1.26.12.73,0,1.33.07,1.77.2.45.13.88.49,1.3,1.06.16.21.47.63.95,1.26.47.63.97,1.3,1.5,2.01.52.71,1,1.37,1.42,1.97.42.6.66.98.71,1.14.42-.26.77-.47,1.06-.63.29-.16.8-.13,1.54.08l.32-.31c-.16-.26-.32-.47-.47-.63-.16-.16-.32-.34-.47-.55l-.94-1.18c-.11-.21-.24-.41-.39-.59-.16-.18-.32-.38-.47-.59l-2.6-3.7c-.32-.42-.66-.84-1.02-1.26-.37-.42-.55-.84-.55-1.26ZM191.28,108.68c.16.26.32.56.47.91.16.34.24.72.24,1.14l-.08,1.18c.05.05.21.09.47.12.26.03.56.04.91.04h1.61c.73.05,1.73.13,2.99.24,1.26.11,2.26.16,2.99.16l4.49.24c1.21.11,2.09.25,2.64.43.55.18.93.41,1.14.67.21.26.34.58.39.95.05.37.18.79.39,1.26.21.47.48.83.83,1.06.34.24.67.35.98.35.58,0,.87-.34.87-1.02,0-.63-.19-1.19-.55-1.69-.37-.5-.55-1.01-.55-1.54,0-.58.16-.96.47-1.14.31-.18.68-.38,1.1-.59.63-.26,1.1-.66,1.42-1.18.32-.52.18-.79-.39-.79-.63,0-1.12.07-1.46.2-.34.13-.8.3-1.38.51-.53.21-.94.32-1.26.32s-.79-.05-1.42-.16c-.16-.05-.39-.08-.71-.08l-1.34-.24c-.11,0-.22-.01-.36-.04-.13-.03-.25-.04-.35-.04l-14.57-1.26ZM200.58,138.3c0-.26-.11-.48-.32-.67-.21-.18-.39-.33-.55-.43-.58-.42-.85-.81-.83-1.18.03-.37.22-.84.59-1.42l8.03-13.63c.1-.21.22-.41.35-.59.13-.18.28-.38.43-.59l.79-1.1c-.11-.16-.21-.29-.32-.39-.11-.1-.21-.24-.32-.39-.21-.31-.37-.63-.47-.95-.16.11-.32.29-.47.55-.16.26-.29.47-.39.63-1.16,1.73-2.32,3.52-3.5,5.36-1.18,1.84-2.38,3.65-3.58,5.43l-3.15,4.8-.71,1.18c-.37.53-.76.79-1.18.79-.26,0-.49-.08-.67-.24-.19-.16-.36-.29-.51-.39-.68.32-1.02.89-1.02,1.73,0,.42.18.64.55.67.37.03.71.01,1.02-.04.26-.05.56-.13.91-.24.34-.1.64-.16.91-.16.32,0,.59.08.83.24.24.16.43.53.59,1.1.1.42.22.76.35,1.02.13.26.43.39.91.39s.88-.13,1.22-.39c.34-.26.51-.63.51-1.1ZM200.58,89.46c.05.16.24.39.55.71l.47.71,4.88,6.22.16.16.24.32c0,.05.01.08.04.08s.04.03.04.08c.21.26.39.51.55.75s.34.49.55.75c.31.47.52.81.63,1.02.1.21.16.38.16.51s-.03.25-.08.35c-.05.11-.08.26-.08.47,0,.47.16.85.47,1.14.32.29.63.43.94.43.58,0,.87-.37.87-1.1,0-.84-.09-1.42-.28-1.73-.18-.32-.28-.6-.28-.87,0-.37.13-.67.39-.91.26-.24.6-.3,1.02-.2.21.05.55.15,1.02.28.47.13.71.01.71-.35,0-.68-.34-1.18-1.02-1.5-.37-.21-.68-.29-.95-.24-.26.05-.6.08-1.02.08-.47,0-.92-.21-1.34-.63-.42-.42-.76-.76-1.02-1.02l-1.89-2.21c-.16-.16-.43-.47-.83-.95-.39-.47-.8-.96-1.22-1.46-.42-.5-.8-.96-1.14-1.38-.34-.42-.51-.66-.51-.71-.16.05-.25.09-.28.12-.03.03-.09.09-.2.2-.32.26-.55.39-.71.39s-.31.05-.47.16c-.11.05-.24.16-.39.32Z"/></svg>